<?xml version="1.0" encoding="UTF-8"?>
<!-- Generator: Adobe Illustrator 19.1.0, SVG Export Plug-In . SVG Version: 6.00 Build 0)  -->
<svg xmlns="http://www.w3.org/2000/svg" xmlns:xlink="http://www.w3.org/1999/xlink" version="1.1" x="0px" y="0px" viewBox="0 0 190 188.8" style="enable-background:new 0 0 190 188.8;" xml:space="preserve">
<style type="text/css">
	.st0{fill:#000000;}
	.st1{fill:#FFFFFF;}
	.st2{fill:#000000;stroke:#000000;stroke-width:0.5;}
</style>
<g id="Layer_1">
	<path class="st0" d="M181.4,54.8c14.6,29.3,10.2,70.7-10.1,96c-23.8,30.5-59.7,43.5-97.7,35.8c-34-6.5-66.4-39.3-72-73.5   c-7-39.9,8.8-77.7,43.4-99.3c27-18.4,70.2-18.1,97.7-1.2C159.2,21.6,173.7,38.4,181.4,54.8z"></path>
	<path class="st1" d="M174.9,46.6c17.4,26.3,17.4,68.4,0.5,94.8c-19.8,31.8-52.9,48.4-90.3,45.2c-34.4-2.7-69.2-30.5-78.9-63.9   C-5.3,86,5.9,47.5,35.4,22.9C60.2,1.6,99.8-4.5,130.2,8.7C147.6,15.3,165.1,29.8,174.9,46.6z"></path>
	<path class="st0" d="M156.2,56.7c12.5,19.1,14.3,49.4,3.1,69.6c-14.5,27.1-42.7,42.7-73.5,38.9c-24.3-2.4-48.9-20.6-57.8-43.9   c-9.2-22.5-5.8-51.4,9.1-70.1C56.3,26.4,88,16.4,117.8,26.5C132.8,31.2,147.4,42.4,156.2,56.7z"></path>
	<path class="st1" d="M157.8,63.4c8.5,15.9,9.8,39.2,2.4,56c-1.6,0.6-4.1-0.5-5.2,0.9c1.3,0.5,3.1,0,4.5,0.5v0.5h-6   c1.1-0.8,0.6-2.8,2.4-2.7c-0.5-1.5,0.3-5.2-1.7-5.5c0.2-1.5-2.1-0.7-1.6-2.4c-0.5,1.4-1.9,0.9-2.4,2.4l0.2,1.2   c-1-0.5-0.1-1.4,0-2.1c-2.4,1.2-2.2-4.5-2.9-0.5h-2.1c-0.1-0.4,0.2-1-0.3-1.2c-0.4-0.2-0.9,0.2-0.7,0.7c-0.2,0.8-1.1,1-1.4,1.9   c-0.1,1.8-0.6,4-2.4,4.3c1.1,1.6,3.6,1.7,4.3,3.9h0.7c-1.9,0.1-4.1-0.4-5.8,0.5c1.3,0.9,3.4,0.1,4.8,0.7v0.5l-4.8,0.2   c1.2-5.6-1.3-11.2-2.1-16.8l0.9-1.2c1.9-7-2.4-16.7,5.6-20.9c-1.3-3,4.7-7.4-0.5-9.6c1.8,0.3,2.4,4,5,1.9c0.2-0.1,0.3-0.3,0.5-0.2   c0.3,0.2,0.2,0.5,0.2,0.7c-1.2,0.3-2.4,1.3-3.3,1.7c1.8,0.8,3.4-0.5,4.8-1.4c-0.4-0.8-0.3-1.7-1.2-2.2l-1.7,0.5   c-1.3-3-3.2-6.3-3.6-9.9c-0.5-0.8-1.7-1.4-2.4-0.4c-0.3,1.5-0.2,3.3-1.9,4c-1.1-0.4-1.4,0.7-1.2,1.5c0.1,1.1,1.5,1.5,0.5,2.9   c-0.2,0.6-0.7,1.2-0.8,1.9c-0.4,0.1-1.2-0.3-1.2,0.5v0.7c0.8,0.6,1.6-0.2,2.2,0c-0.6,1.9,1.5,4-1,5.5c0.7-2.7-3.3-3.5-2.6-6.5   c0.8-0.1,1.8-0.5,2.2-1.4c-0.7-2.5-0.6-4.4-1-7c1.3,0.3,1.9-0.9,2.9-1.4c0.6-1.4-0.9-1.8-1.7-2.2c-1.4-0.2-2.4,0.6-2.6-1.2   c-3-0.4-6,0.5-8.4,2.2c1.8,3.2-3.8,2.7-2.7,6c-0.4,1.8-5.2,4.1-2.6,6.5l1.4-1c0.2,0.5,0.6,0.8,1,1.2c3.3-0.6,1.1-10,5-4.3   c-0.2,2.4-3.3,3-4.1,5.3c-1.9,5.2,0.5,10.5,0.8,15.8l-2.7,11.8c0.9,0.5,1.1,1.4,1,2.4c-0.4-0.5-1-0.2-1.5-0.3l-0.4,0.5   c0.4,1.9,2.5-0.7,1.9,1h-2.2c1.3-9.4,2.7-19.9,0.7-29.3c-16.7-4.2-37.2-4.5-54.2-0.7c0,1.6-2.1,3.8,0,5c0.4-1.2,0.4-2.6,0.7-3.8   c16.5-3.8,36.2-3.3,52.6,0.4c2,18-1.7,35.3-7.9,50.7l-2.4,1.4c0.9-3.7,3.1-8,4.3-12.2c3.3-11.8,6-24.5,4.5-37.7   c-5.5-2.1-11.7-2.8-18-3.1c-10.5-0.4-21.2,0.3-31.2,2.1c-1.9,18,1.5,35.4,8.2,50.7c-1.7-0.3-2.8-2.2-3.4-3.6   c-3.5-9.3-5.6-19.2-7.4-29.3c-0.3,0-0.7,0.4-0.7,0.7l0.7,6.3c0.3-0.3-0.5-1-1.2-0.8c-0.7,0.3,0.2,1.3,0,1c-0.5-0.1-0.9,0.1-1.2,0.5   c0.7,1.1,2.8-0.3,2.9,1.2c-1,0.2-2.6-0.6-2.9,0.7c0.9,1.2,2.1-0.4,3.1,0.5v0.5c-1.1,0.6-3.2-0.5-3.8,0.9c1,0.7,3.7-0.4,4.3,1   c-1.9,0.4-4.3-0.3-5.8,0.9c2.1,1.5,3.8-0.7,6,0.3l0.3,0.7c-2,0-3.8,0-5.8,0.7v0.3c2.1,1.2,5.8-1.6,6.3,1.4c-1.9-0.4-5.1,1-6.5-1.2   c-1.3-2.6,0.1-3.9,1.4-6c0-5.6,2.8-9.9,3.1-15.4c3.2-4-2.6-7.8-1.6-12.7c-2.1-2.9-9.7-4.1-5.6-9.1c0.9-2,6-0.7,4.6-4.3   c-1.2-1.1-2.4-2-4.1-1.9c-0.6-2,0.5-4.8-1.9-5.8c-2.1-0.2-5.7-1-6.2,1.9c0,0.4-0.2,1,0.2,1.2c1.2-0.4,0.6-2,1.9-2.6   c1.6,0.4,4.4-0.4,4.3,1.9l-0.2,1.7c-0.2,1.1,0.4-1-0.5-1c-0.2,0-0.3,0.1-0.5,0.3v0.4c-0.1-0.3-0.1-0.7-0.4-0.9l-2.4,1.7   c-0.3-0.2-0.3-0.5-0.3-0.8c0.8,0,1.6-0.6,1.9-1.4c0-0.5,0.2-1.1-0.4-1.4c-1.8-0.1-1.4,3-3.6,2.4c-0.5,3-5.3,0.8-5.3,4.3   c2.5,0.8,2.2,3.2,4.1,4.5c0.3,2.4,0.4,5-2.4,5.3c-5.7-0.2-7.2,6-10.4,9.1c-0.3,2.1-0.3,4.2,0,6.5c0.7,0.9,1.1,1.7,2.2,1.9   c1.7-0.3,3.3-1,4.6-2.4c-0.6,3.1,2.5,5.7,0.7,8.9c-1,2.1-0.9,4.7-1.9,6.7c-2.4-2.4-4.7,1.7-7-0.7c-3.5,1.9-4.7-5.3-7.9-3.6   c-1.5-0.8-3.6-1.5-5.5-0.5C21.2,74.7,35.3,47.4,61.1,33c21.2-12.2,53.1-10.8,73,3.3C144,43.1,152.7,53.2,157.8,63.4z"></path>
	<path class="st0" d="M93.5,40.9c3.8-1.3,4.1,4.2,7.5,3.8c0,2.1-3.4,2.7-1.5,5.3c-0.4-0.1-0.5,0.4-0.5,0.7l0.8,1.9   c-0.5-0.1-0.7,0.3-1,0.5c0.6,3.4,3,6.5,5.5,8.7c0.5-0.7-0.8-1.2-0.7-2h-0.5c1.1-4.9-1.8-11.2,4.3-13.4c10.1-0.8,21.9,2,31-2.4   c0.7,1.9-2,1.3-2.6,2.6c-2.9,1.6-4.4,4.7-7.5,5.6c-1.1,2.6-5.3,0.6-5.3,3.6c-1.6,1.9-4.7,0.9-5,4c-1.4,2.1-3.8,1.9-5.5,3.9   c-0.4,0.8-0.2,1.8-0.5,2.6c1.2,0.5,1.8-1,2.4-1.7c1.5,3.8-2.1,6.7-3.6,10.4c-10.4-0.4-21.1-1.5-31.7,0c-2.4-2.1-1.9-5.7-5-7   c-0.4-1.7,0.8-2.8,1.4-4.1l0.5,1c0.4-0.6,0.2-1.5,0.2-2.2c-0.7-1.3-2.7-0.2-2.6-2.1c-3.2-0.4-1.3-5.4-5.5-3.9   c-1.7-0.3-0.6-2.4-1.9-2.9c-3.8,1.5-3.8-3-7.2-2.4c-1.9-2.6-5-3.3-7.2-5.7c-0.2-0.3-1.1-0.7-0.8-1.5c4.1-0.3,7.4,2.6,11.8,2.2   c7.3,1,15-2,21.8,0.7c3.8,2.7,1,7.7,1.5,11.1c-1.9-3.5,2.1-9.5-3.4-11.3c-5.9-1.2-11.5,1.2-17.7,0.7c-4-0.7-8.2-1.4-11.8-2.2   c7.3,4.4,18.2,3.8,26.9,2.4c1.5,0.3,3.4,0.9,4.1,2.4c0.4,2.6-1.2,6.7,1.4,8.7c-0.3,1-1.1,1.7-1.7,2.6l0.3,0.3   c3-4.5,9.6-7.8,7.9-14.4c-1.4-0.7-3.2-1.5-3.9-2.9c0.4,0.1,0.8,0.3,1.2,0.2l-0.9-1.4l1.4-0.3c-0.2-1-1.3-1-2.1-0.9   c0.4-1.7,2.1-2.2,3.8-1.9C92.2,40.5,92.8,42.1,93.5,40.9z"></path>
	<path class="st1" d="M93.8,41.6c2.5-0.6,3.1,2.2,5,3.1c-0.3,0.4-0.3,0.9,0.2,1.2h-1.2v0.5c-0.5,0.5-1.2-0.2-1.6-0.7l-0.5,0.9   c-1.4-2.7-3,1.5-4.8-0.9c0.8-0.3,1.7-0.3,2.4-1l-3.6-3.3c-0.2-0.4,1.6-0.9,2.1,0C92.1,42.6,93.7,43.7,93.8,41.6z"></path>
	<path class="st0" d="M96.4,44v0.5c-1-0.4-2.5,0-2.9-1.5C94,41,96.5,42.7,96.4,44z"></path>
	<path class="st1" d="M134.1,46.4c-7.2,2.2-16.2,3-23.8,1.2c-1.9,0.4-3.8,1.8-4.8,3.4c-0.6,2.9,0.5,6.5-1.7,8.8   c1.6-3.8-1.6-10.9,4.4-12.7C116.5,46.2,125.9,49.2,134.1,46.4z"></path>
	<polygon class="st1" points="97.8,49 96.9,48.3 97.6,48.8  "></polygon>
	<polygon class="st1" points="64.7,50 59.4,49.5 64.5,49.8  "></polygon>
	<path class="st1" d="M94,49.8l0.2,1.6L94,49.8z"></path>
	<path class="st1" d="M95.7,51.2c-0.4,0.1-0.5-0.3-0.7-0.5l0.2-0.7C95.6,50.3,95.4,50.9,95.7,51.2z"></path>
	<path class="st1" d="M97.1,50.7c-0.4,0.2-0.9-0.2-0.7-0.7C97.1,49.7,96.9,50.4,97.1,50.7z"></path>
	<path class="st1" d="M129.8,50.5c-4,1-8.4,0.2-12.3-0.3C121.6,49.6,125.8,51.5,129.8,50.5z"></path>
	<path class="st1" d="M77.9,51c-4.6,0.7-9.6,1.5-14.4,1.2l-0.7-0.8C68,52.4,72.7,50.8,77.9,51z"></path>
	<path class="st1" d="M117.5,51.9h1H117.5z"></path>
	<rect x="96.9" y="52.2" class="st1" width="0.2" height="1.2"></rect>
	<path class="st1" d="M125.2,52.6c-2,0.6-4.2,0.1-6-0.4L125.2,52.6z"></path>
	<rect x="93.8" y="52.4" class="st1" width="0.2" height="1"></rect>
	<path class="st1" d="M95.7,53.1v0.7c-0.7,0-0.8-0.8-0.7-1.4C95.6,52.1,95.5,52.8,95.7,53.1z"></path>
	<path class="st1" d="M68.8,55.5c-0.3-0.3-0.6-0.5-0.5-0.9c4.1-0.4,8.2-1.4,12.3-1L68.8,55.5z"></path>
	<path class="st1" d="M121.8,55c-3,0.9-6-1.1-9.3-0.9c2.1-0.6,4.4-0.1,6.5,0.5C119.7,55.2,120.8,55,121.8,55z"></path>
	<path class="st1" d="M93.8,56.2c-0.2-0.2-0.7-0.5-1-0.7l0.5-0.9C93.6,55.1,93.6,55.7,93.8,56.2z"></path>
	<path class="st1" d="M95.7,56.2c-0.6,0.1-1.6-0.6-1.2-1.4L95.7,56.2z"></path>
	<path class="st1" d="M96.2,55.3l0.9,0.5L96.2,55.3z"></path>
	<polygon class="st1" points="91.8,56.2 91.4,55.5 91.8,55.5  "></polygon>
	<path class="st1" d="M117.8,57.2c-2.2,0.5-3.9-1.2-6-1.4C114,55.6,115.7,56.9,117.8,57.2z"></path>
	<path class="st1" d="M78.9,56c-1.9,0.3-3.7,1.4-5.5,1C75.3,56.8,77.1,56.4,78.9,56z"></path>
	<rect x="90.2" y="57.2" class="st1" width="0.7" height="1.2"></rect>
	<path class="st1" d="M92.1,58.4c-0.8-0.5,0.4-1.1,0.7-1.2l0.2,1.2H92.1z"></path>
	<path class="st1" d="M94.7,58.4l-0.2-1.2C94.6,57.6,95.4,58,94.7,58.4z"></path>
	<polygon class="st1" points="98.3,58.4 97.6,57.2 98.3,58.2  "></polygon>
	<path class="st1" d="M116.8,58.6c-1.9-0.1-4.6-0.6-6.7-1.4C112.5,57.3,114.3,58.9,116.8,58.6z"></path>
	<polygon class="st1" points="75.3,60.1 80.3,57.7 75.5,60.3  "></polygon>
	<path class="st1" d="M114.4,60.8c-2.4,0.2-4.8-1.1-7-2.4C109.8,59.2,112.2,59.6,114.4,60.8z"></path>
	<path class="st1" d="M74.8,58.6c-0.1,0.7-1.6,0.7-1.7,0H74.8z"></path>
	<path class="st1" d="M100.2,60.1h-0.7v-0.7C99.7,59.8,100.3,59.5,100.2,60.1z"></path>
	<polygon class="st1" points="79.6,60.6 80.6,59.6 81,59.6  "></polygon>
	<polygon class="st1" points="110.6,62.7 107,61 109.4,61.8  "></polygon>
	<polygon class="st0" points="59.2,63.4 59,62 59.2,62.7  "></polygon>
	<polygon class="st0" points="59.9,63.4 59.9,62.2 60.4,63.4  "></polygon>
	<path class="st1" d="M93,67c0.8-0.5,1.5-1.6,1.2-2.8c1.1,0.9,0.6,2.5,0.8,3.8c-6.4-0.3-12.4,0.5-18.3,1.4c-0.7-0.9-2-1.8-1.4-3.1   c0.6,1,0.9,2.4,2.1,2.9c0.8-1.2-0.8-2.7-1.2-4.1c-0.1-0.1,0.2,1,0.8,1.2c0.2-0.7,0.4-1.4,0.7-2.1c0,1.5,0.7,3.7,2.1,4.5   c0.9-1.4-0.9-2.3-0.9-3.6c0.2,0,0.5,0.1,0.7-0.2v-0.5c0.5,1.3,0.7,3.1,1.9,4.3c1.1-0.8-0.4-2.4,0.7-3.3c0.2,1.1,0.4,2.6,1.7,2.8   v-2.4c0.1,0.9,1,1.6,1.7,2c0.6-1.2-0.2-2.3-0.2-3.4c0.4,1.3,1.8,2.3,2.4,3.6l1.4-3.6c0.9,0.9,0.4,3.4,1.9,3.1   c0.9-1.2,0.3-3,0.5-4.5L93,67z"></path>
	<path class="st1" d="M134.6,63.9c-1.9,1.4-4.8,1.1-6.5,2.2c1.1-1.7,3.8-2.2,5.7-2.2H134.6z"></path>
	<path class="st1" d="M97.1,68h-1.7c0.9-1.1,1.1-2.4,1.2-3.8C96.8,65.7,97.3,66.3,97.1,68z"></path>
	<path class="st1" d="M102.6,68.2c1-0.9,2-1.8,2.2-3.1c0.2,1.1-0.7,2,0,2.9c1.2-0.1,1.4-1.4,1.9-2.2c-0.2,0.4,0.3,2.1,0.5,2.7   c0.8-0.9,2.2-1.9,2.2-3.4l0.7,2.9l0.9-1.2c0.1,0.4,0.9,1.1,0.3,1.7l0.2,0.2l2.2-1.9c0.6,0.9-0.6,1.7-1.2,2.4L97.8,68l1.5-3.1   c-0.1,0.4,0.2,2.1,0.5,3.1c1.2-0.5,0.6-2.2,1.4-3.1c0.4,0.3,0,1.1,0.5,1.4l1.7-1.9C103.4,65.8,101.3,66.9,102.6,68.2z"></path>
	<path class="st1" d="M139.1,65.4c-0.6,0.5-1.6,0-1.9-0.5C137.9,64.8,138.6,64.9,139.1,65.4z"></path>
	<path class="st1" d="M134.8,65.6c0.1,0.3-0.2,0.6-0.5,0.5h-0.7v-0.5H134.8z"></path>
	<path class="st1" d="M132.6,65.8c0,0.3,0.1,0.6-0.2,0.8c-0.3-0.1-0.8,0.2-1-0.3C131.6,66.1,132.1,65.7,132.6,65.8z"></path>
	<polygon class="st1" points="135.8,66.1 136,65.8 137,66.1  "></polygon>
	<path class="st1" d="M143.4,66.3c-0.1,0.3-0.4,0.3-0.7,0.3v-0.5C143,66.1,143.3,66,143.4,66.3z"></path>
	<path class="st1" d="M130.7,66.8v0.5h-0.9C129.3,66.9,130.4,66.2,130.7,66.8z"></path>
	<path class="st1" d="M65,68.7c-3.9-1.5-10.4-2.1-14-1.2C55.5,66.1,60.9,66.9,65,68.7z"></path>
	<path class="st1" d="M136.2,67.5c-0.4,0.7-2.7,0.5-1.9,1.9h0.5c0.1,0.3-0.1,0.4-0.2,0.5c0.4,1.1,1.2,0,1.9,0   c0.4,0.3,0.1,0.8,0.2,1.2c-1.3-0.1-1.2,0.9-1.7,1.7l1.7,0.2v0.5c-1.6,0.9-3.1-0.3-3.8-1.7c-0.3-1.6-0.7-3.1,0.9-4.3   C134.7,66.9,135.3,67.3,136.2,67.5z"></path>
	<path class="st1" d="M129,68v0.2h-1.4C128.3,68.3,128.4,66.8,129,68z"></path>
	<path class="st1" d="M143.9,68.7l-1.7-0.2l1-1C143.8,67.6,143.9,68.2,143.9,68.7z"></path>
	<path class="st1" d="M60.4,69.7c0.2,1.7-0.2,3.4-1.4,4.3c-0.4-0.1-0.8-0.3-1.2-0.2c-0.1-0.4,0.3-1.3-0.8-1.2   c-0.5-0.1-0.9,0-1.2,0.4c0,0.3,0.2,0.4,0.3,0.5c-0.2,0.5-0.7,0.2-1,0.3c-0.1-1.4-2.1-1.4-1.4-3.2c0.3,0.7,2.6,1.3,2.9-0.4   c-0.5-1.3-1.9-0.7-2.7-0.5C55.6,69,58.5,69,60.4,69.7z"></path>
	<path class="st1" d="M127.8,70.4h-1.6c-0.4-1.1,0.8-1.4,1.6-1.2V70.4z"></path>
	<path class="st1" d="M89.2,69.9v0.5h-1.4c-0.4-0.8,0.5-0.2,0.7-0.7C88.7,69.7,89,69.6,89.2,69.9z"></path>
	<path class="st1" d="M93,69.7c0,0.2,0.1,0.3,0.3,0.5c-0.9,0.3-1.9,0.2-2.9,0.2v-0.7H93z"></path>
	<path class="st1" d="M96.6,70.2H94c0.4-0.9,1.8-0.4,2.6-0.5V70.2z"></path>
	<path class="st1" d="M100.5,70.2c-0.8,0.4-1.9,0.1-2.9,0.2c0-1.3,1.8-0.5,2.6-0.7C100.4,69.8,100.6,69.9,100.5,70.2z"></path>
	<path class="st1" d="M143.9,70.4c-0.8,0.4-1.9,0.2-2.9,0.2C140.8,69.1,143.8,69.4,143.9,70.4z"></path>
	<path class="st0" d="M60.2,70.6c-1.5-0.1-0.1,1.2-1.7,0.8L58,70.6c-0.2,0.3-0.6,0.4-0.5,0.8c-0.4,0-0.1-0.7-0.2-1   c0.7-0.6,2-0.6,2.9-0.2V70.6z"></path>
	<path class="st1" d="M86.8,70.2c-0.3,0.1-0.8,0.6-1.4,0.4v-0.7C85.8,70,86.5,69.7,86.8,70.2z"></path>
	<path class="st1" d="M102.6,70.2c0.1,0.2-0.1,0.3-0.2,0.4c-0.5,0.1-1.2,0-1-0.7C101.8,70,102.4,69.7,102.6,70.2z"></path>
	<path class="st1" d="M105.3,70.2v0.4h-1.7l0.2-0.7C104.2,70.4,104.8,70.1,105.3,70.2z"></path>
	<path class="st1" d="M84.2,70.4C84,70.6,83.5,71,83,70.9l-0.3-0.7C83.2,70.2,83.8,70,84.2,70.4z"></path>
	<path class="st1" d="M107.4,70.4v0.5h-1.2l0.5-0.7C106.9,70.5,107.2,70.4,107.4,70.4z"></path>
	<path class="st1" d="M81.5,70.6c-0.2,0.4-0.8,0.6-1.4,0.5C79.8,70.1,81.1,70.3,81.5,70.6z"></path>
	<path class="st1" d="M109.6,71.1h-1.2l0.2-0.7C109.1,70.4,109.9,70.5,109.6,71.1z"></path>
	<path class="st1" d="M78.9,70.9c0,0.4-0.7,0.1-1,0.2C77.8,70.6,78.7,70.5,78.9,70.9z"></path>
	<path class="st1" d="M111.8,70.9c0,0.2-0.2,0.3-0.3,0.5h-0.7l0.2-0.8C111.2,70.9,111.5,70.9,111.8,70.9z"></path>
	<polygon class="st1" points="131.4,71.4 131,70.6 131.4,71.1  "></polygon>
	<path class="st1" d="M146.8,75.7c0.3-2.5-3.5-1.8-5.5-1.9c-0.5,0.3-0.5,0.8-0.7,1.2c0.6,0.7,1.2-0.4,1.9-0.3   c-0.7,1.1-2.3,0.5-2.7,1.7c0.1-1.6,0.8-2.9,1.2-4.3c0,2.1,2.6,0.8,3.9,1.2c1.1-0.5-0.2-1.2,0.2-1.9L146.8,75.7z"></path>
	<path class="st1" d="M87.8,73c-0.1,0.5-0.8,0.2-1.2,0.3l-0.8-1.2l1-0.5L87.8,73z"></path>
	<path class="st1" d="M102.6,72.6c0.2-0.9,1.5-0.4,2.2-0.5c0.1,0.4-0.2,0.9,0.2,1.2c0.3,0,0.6,0,0.8-0.3v-0.7h1.2c0,0.4-0.6,0.7,0,1   c0.9,0,1-1.1,2.1-0.7l-0.2,0.9c-6.5-0.1-14-0.7-20.4-0.5v-1.4l13.7,0.2L102.6,72.6z"></path>
	<path class="st1" d="M85.4,73c0,0.4-0.4,0.6-0.8,0.5c-1,0.4-1.2-0.8-1.4-1.4C84.1,71.5,85.1,72.1,85.4,73z"></path>
	<path class="st1" d="M143.9,72.1c-0.1,0.4-0.9,0.1-1.4,0.2C142.7,71.7,143.5,71.7,143.9,72.1z"></path>
	<path class="st1" d="M82.7,73.5c-0.4,0.2-0.7,0.3-1.2,0.3c-0.1-0.6-1.4-1.5-0.2-1.7C82.6,71.6,82,73.1,82.7,73.5z"></path>
	<path class="st1" d="M80.3,73.5c0.1,0.5-0.6,0.2-0.9,0.3c0.2-0.6-1.1-1.4,0-1.5L80.3,73.5z"></path>
	<polygon class="st1" points="110.1,73.8 110.6,72.6 110.3,73.8  "></polygon>
	<path class="st1" d="M134.1,75.7c-1.4,0.7-3.1-1.1-3.6-2.4l0.2-0.7C132.1,72.8,132.9,74.9,134.1,75.7z"></path>
	<path class="st1" d="M122.8,75l1.7-2.2C124.3,73.2,124.1,75,122.8,75z"></path>
	<path class="st1" d="M125.2,75c-0.6-0.5,0.2-1.3,0.2-2C125.4,73.2,125.6,74.5,125.2,75z"></path>
	<path class="st1" d="M133.4,76.9v0.9c-0.9-1-2.9-1.6-3.2-3.1C131.2,75.7,132.1,76.7,133.4,76.9z"></path>
	<path class="st1" d="M56.3,75l1.7,0.2L56.3,75z"></path>
	<path class="st1" d="M131,78.3c0.3,0.2-1.6-1.6-2.2,0c-1.8,1.9,1.5,0.6,1.9,1.7c-0.1,0.2-0.6,0.4-0.5,0.7l0.5,0.5   c-0.6,0-2.1-0.1-2.9,1c1.3-0.1,3,1.1,3.4,0.7c-0.2,0.2-0.6,0.4-0.5,0.7l0.5,0.5c-1.3-0.4-0.7,0.9-1.4,1.4c0.9,0.9,1.5-0.4,2.6,0.5   h-0.7l0.2,1.2h-0.2l0.2,1.7c3.5-0.8,6.2-4.7,8.7-7.2c1-0.2,0.8,1,1.6,1.4c-0.7-0.2-1,0.1-1.2-0.9c-1.6,0.8,0.3,2.2-0.7,3.3   l-0.9-1.7c-1.3,0.9-0.6,1.7-1,2.9l-0.2-1.4c-1.3-0.5-0.8,1-1.2,1.4c0.4,0.7,0.1,1.6,0.2,2.4h-0.7c0.4-1-0.7-1.1-1-1.7   c-1.1,1,0.1,2-0.5,3.2c-0.2-0.4-0.3-1.9-1.4-1.5l-0.2,2.2l-1.2-1c-0.5,0.6-0.5,1.1,0,1.7c-0.3-0.1-0.4,0.1-0.5,0.2v0.5   c-2.1-3-2.4-7-4.6-9.8c-0.8,2.1,1.6,3.5,0.7,6l0.8,0.7c-0.9,0.9,0.1,2.6,0.2,3.4c-0.8-0.1,0,1.3-0.2,1.9c-0.1,0.3,0.3,0.5,0.4,0.7   l-0.7,0.7l0.7,1c-0.3-0.1-0.4,0.3-0.7,0.5c0.2,0.3,0.5,0.2,0.7,0.2l-0.4,0.5l0.2,0.2c-0.5,0-1.1,1-0.5,1.5   c-1.3,0.1,0.6,1.5-0.7,1.4c0.3,1.2-0.5,2.4-0.2,3.1l-0.3-0.2l-0.7,1.2c0.4,0.9,1.4,0.3,2.2,0.5h-2.9c-0.3-3,1.7-5,1.4-8   c-0.1-0.8,1.5-1.9,0.3-2.8c1-1.9,0.1-4.9-0.8-6.5l0.5-0.7c-0.7-4.2-2.1-9.8,2.2-12.5C129.6,76.7,130.4,77.4,131,78.3z"></path>
	<path class="st1" d="M144.6,77.4c0,1.7-0.7,3.1-1.9,4.3c-2.4-0.6-2.2-3.3-1.9-5.1l0.7,0.8c0.4-0.5,1.1-2.1,1.9-1.2   C143.9,76.1,144.4,76.9,144.6,77.4z"></path>
	<path class="st1" d="M135,78.3c-0.2,0.2-0.3,0.6-0.7,0.5l0.5-1.7C135.2,77.2,135,77.9,135,78.3z"></path>
	<path class="st0" d="M139.1,78.1v0.7c-0.8,0.1-1.7-0.3-1.7-1.2C138.1,77.5,138.6,77.8,139.1,78.1z"></path>
	<path class="st1" d="M60.6,79.5l1-0.9c1,2.1-3.4,3.1-2.2,5l3.4-3.8c0.8-0.3-0.8,0.6-0.5,1.2l1.7-0.5c-0.4,0.2-0.2,0.6-0.2,0.9   c0.7,0.3,1.3-0.3,2.1,0.3c0.4,1.1,1.3,2.6,0.5,3.6c0.5,0.4,0.7,0.8,0.7,1.4h-0.2c1.2,0.7-0.6,2.3,0.5,2.9c-1.3,1.1-3.3,2.2-4.1-0.2   c-0.5-1.5,0.1-3.8-0.7-4.8c-0.5,4.5-0.3,8.1-1,12.4c-0.2,0-0.3,0.2-0.5,0.3c-1.1-3.7-1.6-7.7-2.4-11.5c2-1.4-0.6-2.7-0.2-4.4   c-0.6-0.4-0.9-0.9-0.7-1.6c0.2,0.2,0,0.8,0.7,1.2c0.6-0.3,1.2-0.9,1.4-1.5L59.4,79l1-1.2C60.7,78,59.7,79.2,60.6,79.5z"></path>
	<path class="st1" d="M54.9,81c-1.6,2.1-3.4,3.8-5.8,4.8c-0.5-0.8,1.1-2-0.5-2c-0.3-0.5,0.8-0.8,0-1.2c-1.4-0.2,0,2-1.6,1.7   c0,0.5,0.7,0.8,0.4,1.5c-1.5,1-2.4-0.9-3.8-1c1.8-1.8,2.9-6.2,6.5-5.5c0,1.7,0.7,3.6,2.1,4.3c0.3-1.5-1.8-2.9-0.7-4.8   c0.4,0.5-0.1,1.6,0.7,1.7c0.5-0.3,0.6-0.7,0.5-1.2c0.5,0.8,0.6,1.9,1.2,2.4c1.5-0.9-0.2-2.3,0-3.6C55.4,79.1,54.7,79.4,54.9,81z"></path>
	<path class="st1" d="M135,81.4c-0.4-0.2-1.2-1.4-0.2-1.6h0.7L135,81.4z"></path>
	<path class="st1" d="M56.8,81.4h-0.5V80C56.9,80.3,56.8,80.9,56.8,81.4z"></path>
	<path class="st1" d="M119.7,84.3c0.3,4,0.3,8.5,0,12.5c-5.6,2.3-13.8-2.1-17.3,3.8c0.1,0.1-1-0.1-1.2,0.5v0.7   c-2.1-0.5-2.7,1-4.3,1.7l0.2,0.3c-1.1,0.6-2.3-0.5-2.9,0.9c-1.5-1-3.3-2.8-3.1-5l-0.5-0.5c-2.4,3.3-4.1,7.3-6.9,10.6   c-0.7,0.3-1-0.8-1.5,0c1.2,1.4,3.4,1.9,4.4,3.8c-0.2,0.2-0.6,0.4-0.5,0.7c2.1,1.2,4.5-0.2,6.9,0.3c1.8,3.9,7.2,0.4,10.8,1.9   c0.8,0.1,1.3-0.2,1.7-0.7c-0.4-0.9-1.3,0-2.1-0.3c0.1-0.3-0.4-0.5-0.5-0.7l3.6-0.5c-1.4-0.6,0.5-2.4-0.3-3.6   c0.8-0.2,2.1,0.5,2.2-0.7c0.1-1.1-1.2-0.7-1.7-1.4c-1.3,0.5-1.2,4-3.6,2.4c-0.5-1.1-1.1-2.1-1.7-3.2c0.8-0.1,1.8,0.4,2.2-0.4   c-0.4-1.2-2.9-1.3-2.6-2.9c3.3,0.3,8.4,2.7,11.5-0.3c0.3,1.2,2.1,0.8,3.1,1.5l2.6,0.5c0.8,2.6-2.6,0.2-3.6,1.6l3.2,0.8   c-0.6,0.8-2,0.7-3.2,0.7c-0.6-1.1,0.6-3.6-1.6-3.4c-1.4,1-0.5,2.9-0.8,4.3c-1.4,1-1.8,2.7-2.6,4.1c0.9,1.1,3.1-0.3,3.6,1.2   c0.8,0.5,1.9,0.2,2.9,0.3c-2.8,8.2-3,19.6-13,22.8c-0.1-3.7-4.3-0.9-6.9-2.4c-0.3,0.1-0.3,0.4-0.3,0.7c1.7,1.1,4,0.8,6,1.2v0.5   c-3,0.2-6.3-0.3-9.1-1.2v-0.8c0.4,0,0.9,0.2,1.2-0.2c0.1-0.3-0.3-0.5-0.5-0.7c0.7,0.2,1.1,0.9,1.7,1.4c0.5-3.9,1-7.8,1.4-11.7   c-2.6,1.8-6,4.9-9.6,6.2c-0.3,0.5,0.3,1.6,1.2,1.2H89l-0.3,1.7c-2.5-0.5-5.1-1-7.7-1.5c2.2,0.5,3.8-0.8,5.3-1.4   c-2.3-1.3-6.4,2.8-6.2-1.4c1.4,0.6,2.9-0.1,4.3-0.5l1.2-1.5c-0.8-0.7-2,0.1-2.9,0.5c-0.1,1.6-1.8,0.4-3.1,0.7   c-1-2.8-2.6-5.5-3.1-8.6c1.3,0.5,3.8,0.2,5-0.2c0.2-0.5-0.2-0.7-0.5-1c-1.7,0.5-3.5,0-4.8,0.5c-0.1-0.6-0.6-1-0.4-1.7   c2.2-1.2,3.7,0.1,6.2,0.5c0.4-0.6,1.4,0.2,1.7-0.7c-0.7-1.6-1.9-0.2-2.9-0.3c-0.7-2.3-3.5-1.9-5.3-2.1c0.8-0.2,3.4,0.4,4.6-0.5   c-0.8-1.7-0.8-4.2-3.1-4.6c-0.4-1.3,0-3.4-2.2-3.6c0.2,0.1,0.3-0.1,0.5-0.2c-0.1-0.3,0.2-0.8-0.3-1c-1.5-0.5-0.6,1.7-1.9,1.5   c-1.2-7.5-1.7-16.2-0.5-23.8C87.9,81.3,104.9,80.5,119.7,84.3z"></path>
	<path class="st1" d="M57.8,82.4c-0.2,1.3,0.4,3.5-1.5,3.4h-2.1l-10.8,8.8c-1.5,0.5-2-0.7-2.4-1.6l0.2-2c4.5-3.2,10.4-4.1,13.9-8.8   L57.8,82.4z"></path>
	<path class="st1" d="M136.7,84.1l-0.7,0.7c-1.1-0.5-0.1-1.8,0.2-2.6C136.7,82.7,136.8,83.3,136.7,84.1z"></path>
	<path class="st2" d="M87.5,82.9H93H87.5z"></path>
	<path class="st2" d="M97.8,82.9h6.3H97.8z"></path>
	<path class="st2" d="M77.7,84.8h5.5H77.7z"></path>
	<path class="st2" d="M88,84.8h5H88z"></path>
	<path class="st2" d="M97.8,84.8h6H97.8z"></path>
	<path class="st2" d="M108.6,85h6.3H108.6z"></path>
	<path class="st1" d="M45.5,87.2c0,0.3-1.5-0.2-0.7,0.7c-1.6-0.2-2.3,2.5-3.8,0.5l1.6-0.2c-0.1-0.8-1.5-2.1,0-2.4   C43.8,85.7,44.8,86.2,45.5,87.2z"></path>
	<path class="st2" d="M73.4,86.7h0.7H73.4z"></path>
	<path class="st2" d="M78.4,86.7h5.5H78.4z"></path>
	<path class="st2" d="M88.5,86.7h4.8H88.5z"></path>
	<path class="st1" d="M61.8,107.8l-0.7,0.8c-1.5-7.1-2.9-14.7-3.3-21.6C59.1,93.7,60.8,100.7,61.8,107.8z"></path>
	<path class="st2" d="M97.8,87h5.6H97.8z"></path>
	<path class="st2" d="M107.9,87h6.3H107.9z"></path>
	<path class="st1" d="M55.6,91c0.4-0.7,0.2-2.4,0.2-3.6L58,97c-2.5-0.1-4.5-0.4-6.7-0.7c-0.7,0-0.4,0.6-1,0.7   c-0.7,0.5-0.8-1.1-1.4-0.2c-1.2-0.8-0.9-3.2-0.3-4.3c0.2-0.2,0.4-0.3,0.3-0.5c0.3,0.6,0.3,1.8,0.9,2.4c1-1,0.2-2.7,0.8-3.8   c0.8,0.4,0.2,2.3,1.4,2.4c0.9-1.5-0.8-2.3,0.5-3.6c0.4,0.5,0.1,1.9,1.2,2.1c0.7-1.3-0.5-3.3,0.9-4.3C54.6,88.6,54.6,90.3,55.6,91z"></path>
	<path class="st2" d="M73.1,88.9H75H73.1z"></path>
	<path class="st2" d="M79.1,88.9h5.5H79.1z"></path>
	<path class="st2" d="M88.7,88.9h4.6H88.7z"></path>
	<path class="st2" d="M97.6,88.9h5.3H97.6z"></path>
	<path class="st2" d="M107.4,88.9h5.6H107.4z"></path>
	<path class="st2" d="M117,88.9h1.7H117z"></path>
	<path class="st1" d="M68.6,90.8c-0.1,1.2-2,0.7-2,2.2h2.2c-1.5,0.8-3.4,2.4-5.5,1.4c0-0.5,0.7-0.9,0.5-1.7   c-0.3-1.1,3.3-0.7,4.5-2.1L68.6,90.8z"></path>
	<path class="st2" d="M73.1,90.8H76H73.1z"></path>
	<path class="st2" d="M80.1,90.8h5H80.1z"></path>
	<path class="st2" d="M89.2,90.8h4.3H89.2z"></path>
	<path class="st2" d="M97.6,90.8h4.8H97.6z"></path>
	<path class="st2" d="M106.7,90.8h5.3H106.7z"></path>
	<path class="st2" d="M116.1,90.8h2.6H116.1z"></path>
	<polygon class="st1" points="137,95.6 137.4,91.5 137.4,95.6  "></polygon>
	<path class="st2" d="M73.1,92.7H77H73.1z"></path>
	<path class="st2" d="M80.8,92.7h4.8H80.8z"></path>
	<path class="st2" d="M89.4,93h4.1H89.4z"></path>
	<path class="st2" d="M97.4,93h4.5H97.4z"></path>
	<path class="st2" d="M106,93h5H106z"></path>
	<path class="st2" d="M115.1,93h3.6H115.1z"></path>
	<path class="st1" d="M133.8,99.4c-0.9-0.8,1.1-1.1,0-1.9h-0.4v-0.7l0.4,0.5c0.5-0.3,0.2-1,0.3-1.5l-0.5-0.4l-1.2,1.2   c-0.3-1.7,1.4-1.1,2.2-2L133.8,99.4z"></path>
	<path class="st2" d="M73.4,94.9h4.8H73.4z"></path>
	<path class="st2" d="M81.8,94.9h4.5H81.8z"></path>
	<path class="st2" d="M89.9,94.9h3.6H89.9z"></path>
	<path class="st2" d="M97.1,94.9h4.6H97.1z"></path>
	<path class="st2" d="M105.5,94.9h4.6H105.5z"></path>
	<path class="st2" d="M113.9,94.9h4.1H113.9z"></path>
	<path class="st1" d="M67.4,97l-1,1c0.1,0.3,0.4,0.2,0.7,0.2c-0.4,0.6-0.1,1.9-1.2,1.7c0.8,0.2,0.5,1.5,0,1.9l-1.2,8.7   c-0.8,0.5-1.5,1.2-2.6,0.9c-3-1.8,2.5-2.9,0.9-5c3.8-2.6-1.5-9.6,3.6-10.6C66.2,96,66.7,97.1,67.4,97z"></path>
	<path class="st1" d="M63.3,104.5c-0.5-2.4-1.8-5.4-0.3-7.7C63.1,99.4,63.9,101.9,63.3,104.5z"></path>
	<path class="st2" d="M74.6,96.8h4.5H74.6z"></path>
	<path class="st2" d="M82.5,96.8h4.3H82.5z"></path>
	<path class="st2" d="M90.2,96.8h3.6H90.2z"></path>
	<path class="st2" d="M97.1,96.8h4.3H97.1z"></path>
	<path class="st2" d="M105,96.8h1.2H105z"></path>
	<path class="st1" d="M137.2,97.3c0.1,0.3-0.3,0.5-0.5,0.7v-0.7H137.2z"></path>
	<rect x="132.2" y="97.8" class="st1" width="0.2" height="0.9"></rect>
	<path class="st1" d="M51.8,99h-2.7c-0.3-1.8,1.8-0.7,2.7-1V99z"></path>
	<path class="st1" d="M54.6,98.5v0.7H53V98C53.5,98.2,54.6,97.6,54.6,98.5z"></path>
	<path class="st1" d="M119.2,98.2l-3.4,0.3c1-0.4,2.2-0.6,3.4-0.5V98.2z"></path>
	<path class="st1" d="M58.2,99.2L55.8,99c0-1.3,1.8-0.7,2.4-0.5V99.2z"></path>
	<path class="st1" d="M111,99c-1.1,0.4-2.1,0.1-3.6,0.2C108.1,97.7,109.8,99,111,99z"></path>
	<path class="st2" d="M75.8,98.7h4.5H75.8z"></path>
	<path class="st2" d="M83.2,98.7h4.3H83.2z"></path>
	<path class="st2" d="M92.3,98.7h1.5H92.3z"></path>
	<path class="st2" d="M96.9,98.7h4.1H96.9z"></path>
	<polygon class="st1" points="135.8,103.3 136.7,99.2 136.2,103.3  "></polygon>
	<path class="st1" d="M119,99.9v0.5c-1.2-0.5-2.5,1.1-2.9-0.7C116.9,99.4,118.3,99.1,119,99.9z"></path>
	<path class="st1" d="M113.9,100.4c-1.2-0.5-1.7,0.9-2.9,0.5C112,99.9,112.7,99.8,113.9,100.4z"></path>
	<path class="st2" d="M77.4,100.9h3.9H77.4z"></path>
	<path class="st2" d="M84.2,101.1h3.1H84.2z"></path>
	<path class="st2" d="M96.6,101.1h2H96.6z"></path>
	<path class="st1" d="M50.3,103.8c-0.8,0.9,0.9,1.5,1,2.1l-1,0.5c-0.5,0,0.1-1.1-0.7-1c-0.9,0.4-0.2,1.2-0.2,1.7   c1.1,0.9,1.7,2,1.4,3.4c-0.6-0.3-0.8-1.3-1.7-1.5c-0.1-0.2,0.1-0.3,0.3-0.4c-0.2-0.3-0.5-0.3-0.8-0.3c-0.8,1.7,1.8,2.8,1.5,4.6   l-2.2-2.2c-1,1.9,1.9,2.3,1.7,4.1c-0.2-0.1-0.3,0.1-0.5,0.2c-0.3-0.6-0.8-1.5-1.7-1.9c-0.9,1.6,1.6,2.7,1,3.6   c-1-0.5-1.6-0.6-2.6-0.2c0.6-4.2,0.9-7.6,2.1-11.5c0.9-1.2,0.3-2.4,1.5-3.6C50.1,101.5,48.9,103.8,50.3,103.8z"></path>
	<path class="st1" d="M89.9,104h-0.7l0.7-1.7C89.9,102.9,90.5,103.5,89.9,104z"></path>
	<path class="st1" d="M92.1,103.8c-0.2,0.4-0.7,0.1-1,0.2v-1.4L92.1,103.8z"></path>
	<path class="st2" d="M73.6,103h1.7H73.6z"></path>
	<path class="st2" d="M78.9,103h3.6H78.9z"></path>
	<path class="st2" d="M85.1,103h1H85.1z"></path>
	<path class="st1" d="M131.4,103.8l-0.2,0.2v-1C131.5,103.2,131.4,103.5,131.4,103.8z"></path>
	<path class="st1" d="M136,105.9c-1.6-0.4,0.4-1-0.2-2.1h0.4L136,105.9z"></path>
	<path class="st1" d="M99.8,104.7c0.3,1.6-4.4,1.8-1.5,3.1H99c0.1,0.4-0.3,0.8-0.7,0.8h-2.6C95,105.9,98.4,106,99.8,104.7z"></path>
	<path class="st1" d="M27,105c0.5,1-0.8,0.9-1.2,1.4C24.9,105.5,26.5,105.2,27,105z"></path>
	<path class="st1" d="M89.2,105c0.9,1.5-3.9,4.5,0.2,4.5c-0.4,1.9-2.6,1.9-4.3,1.5l-0.5-0.5C85.9,108.5,86.7,105.6,89.2,105z"></path>
	<path class="st1" d="M93.8,105c-1.3,0.4-0.6,1.7-0.8,2.6c-0.7-0.5-1.4-1.8-1.4-2.6H93.8z"></path>
	<path class="st1" d="M33,106.9c-0.4,0.1-0.9-0.2-1.2,0.2c-0.7-0.2-0.7-1.4,0-1.7C32,106,33.3,105.9,33,106.9z"></path>
	<path class="st2" d="M75.8,105.4H77H75.8z"></path>
	<path class="st2" d="M80.1,105.4h3.6H80.1z"></path>
	<path class="st1" d="M90.2,107.6l-0.5,0.5c-0.2-0.3-0.5-0.2-0.7-0.3l0.9-1.6C90.4,106.5,90.1,107.1,90.2,107.6z"></path>
	<polygon class="st1" points="91.1,108.1 91.1,106.2 92.1,108.1  "></polygon>
	<path class="st1" d="M29.4,107.1H27C27.7,106.8,28.8,106.8,29.4,107.1z"></path>
	<path class="st1" d="M132.9,111.4c-0.1,0.5,0.2,1.2-0.3,1.5l-3.1-3.1l-0.2,0.2c0.3,2.3,4.4,3.7,2.6,6.2c-0.7-0.8-1.6-2.3-2.6-3.1   c-0.4,2.2,3.3,3.9,1.7,6.3c-0.9-0.6-1.1-1.6-1.7-2c-0.9,2,2.8,3,1.2,5.3l-1.7-1.7c-0.3,1.6,2.1,3,1.2,4.8c-0.8-0.3-0.7-1.5-1.7-1.4   c-0.3,1.4,1.9,2.3,1.5,4.1l-1.5-1.7c-0.8,1.5,1.9,3,1,4.8l-1.7-1.7c-1.1,1.8,2.5,2.9,1.9,5.1l-2.4-1.5c-0.3,1,1.4,1.9,1.9,2.7v0.4   h-3.3c-0.7-6.7,1.1-12.4,1.7-18.7l-1.7-9.8C128.8,105.9,131.7,108.6,132.9,111.4z"></path>
	<path class="st1" d="M56.8,117.4h-0.2c-0.2-2.6-0.7-6.7-0.5-9.8C56.7,110.5,58,114.2,56.8,117.4z"></path>
	<path class="st2" d="M77.4,107.6h1.5H77.4z"></path>
	<path class="st2" d="M81.8,107.6h2.1H81.8z"></path>
	<path class="st2" d="M106.7,107.6h2.7H106.7z"></path>
	<path class="st1" d="M132.6,108.1v0.5l-1.2-1C131.9,107.5,132.3,107.7,132.6,108.1z"></path>
	<path class="st1" d="M30.4,108.1v0.7c-1.3,0.2-3.5,0.8-4.3-0.5C27.4,107.4,28.6,108.4,30.4,108.1z"></path>
	<path class="st1" d="M35.2,108.6c-0.3,0.4-0.7,0.5-1.2,0.4l-1-1.2C33.9,107.7,34.6,108,35.2,108.6z"></path>
	<path class="st1" d="M75.8,109.5c-0.2,0.4-0.4,0.8-0.3,1.2c-1.7,0.5-2.2-1-1.9-2.4C74.5,108.2,75.7,108.4,75.8,109.5z"></path>
	<path class="st1" d="M101,108.6l1.2,2.4L101,108.6z"></path>
	<path class="st1" d="M135.8,108.8l1.2,1.2L135.8,108.8z"></path>
	<path class="st1" d="M43.6,111c-0.8,0.4-1.9,0.1-2.9,0.2c0.5-0.8,0.9-2.3,2.2-2.2h0.5L43.6,111z"></path>
	<path class="st1" d="M38.8,110v1h-2.2C36.8,110,38.2,108.3,38.8,110z"></path>
	<polygon class="st1" points="92.8,110.7 91.8,109.3 92.8,109.3  "></polygon>
	<path class="st1" d="M33.8,111.4c-2.3-1.7-4.3,0.1-7-0.4v-1.2C29.3,110,33.1,109.1,33.8,111.4z"></path>
	<path class="st0" d="M80.8,110c-0.6,0.3-2,0.6-2.2-0.2C79.4,109.8,80.2,109.6,80.8,110z"></path>
	<path class="st1" d="M100,110.2c-0.6,0.8-1.5,0.3-1.7-0.4C99,109.6,99.5,110,100,110.2z"></path>
	<polygon class="st1" points="91.1,111 91.1,110 91.8,111  "></polygon>
	<path class="st1" d="M97.4,110.2v0.8h-1.2C96.3,110.6,96.9,109.5,97.4,110.2z"></path>
	<path class="st1" d="M54.6,117.4c-0.1-0.5-0.6-1.6-1.4-1.9l1.7-5L54.6,117.4z"></path>
	<path class="st1" d="M116.1,110.5c-0.7,0.6-3.3,0.5-1.9,1.9c-0.8,0.1-1.8-0.2-2.4,0.2c-0.2,0.5,0.2,1,0.7,0.8h0.9   c-0.5,0.4-1.4,0.1-2.1,0.2c0.3-1.3,1.1-2.3,2.1-2.9C114.5,111,115,110.2,116.1,110.5z"></path>
	<path class="st1" d="M125.2,111.9v0.3l-3.4,0.2v-1.7C123,111.1,125.4,109.7,125.2,111.9z"></path>
	<path class="st1" d="M101.2,111.9c-0.1-0.3-1,0.7-1.4,0l0.7-0.7L101.2,111.9z"></path>
	<path class="st1" d="M32.1,113.1h-3.6C29.2,111.7,32.4,111.1,32.1,113.1z"></path>
	<polygon class="st1" points="27.5,112.4 27,111.9 28,111.9  "></polygon>
	<path class="st1" d="M36.9,111.9c-0.6,0.5-1.2,1.5-2.2,1.5C35.2,112.8,35.7,111.4,36.9,111.9z"></path>
	<path class="st1" d="M43.8,112.6l-0.4,2.9c-3.4-0.1-6.9,0.2-10.1-0.2c2.7-2.4,7.4-0.4,10.3-1.7l-5.3-0.5c1-2.2,3.4-0.8,5.1-1.2   L43.8,112.6z"></path>
	<path class="st1" d="M96.9,112.4l-1,1l-0.2-1.5C96.2,111.7,96.5,112.2,96.9,112.4z"></path>
	<path class="st1" d="M138.2,114.8c-0.5-1-2.1-1.5-1.5-2.9C138.1,112.1,137.8,114.1,138.2,114.8z"></path>
	<path class="st0" d="M84.9,112.6c-1,0.4-3.5,0.4-5.1,0C81.4,112.3,83.3,112.3,84.9,112.6z"></path>
	<path class="st0" d="M109.8,112.9c-0.9,0.3-2.4,0.3-3.3,0c0.6-0.8,2.4-0.5,3.3-0.3V112.9z"></path>
	<path class="st1" d="M116.8,112.6v0.5h-1.4C115.5,112.6,116.3,112.1,116.8,112.6z"></path>
	<path class="st1" d="M145.8,113.8h-1.9c-0.7-1.5,1.2-1.1,1.9-1.2V113.8z"></path>
	<path class="st1" d="M149,113.8h-2.2c-0.5-1.1,1.2-1.3,2.2-1.2V113.8z"></path>
	<path class="st1" d="M153.5,113.4c-0.1,1-1.2,0.6-1.9,0.7l-0.5-0.5C151.2,112.2,153,112.8,153.5,113.4z"></path>
	<path class="st1" d="M125.4,113.4v0.4c-0.7,0-2.1,0.1-2.6,0.8c1-0.3,3,0.2,3.1,1.4c-0.7,0.5-2.2-0.2-2.6,0.7   c0.6,0.8,3.1-0.6,3.1,1.2c-0.3,0.6-1.6-0.2-1.9,0.7l1.7,0.8c-0.2,0.3-0.4,0.7-0.3,1.2c-1.3,0.5-1.8-0.9-2.6-1.5   c-1.2,0.1,2,0,0.2-0.9c-0.9,0.4-2.3,0.2-2.6-0.8l-0.3-0.2c-0.2-0.6,1.6,0.2,2-0.7c-0.3-1.2-2.6,0.4-1.7-1.5   c0.6-0.1,1.3,0.3,1.7-0.4c-0.7-0.7-1.8-0.6-1-1.7C122.7,113.4,124.3,112.8,125.4,113.4z"></path>
	<path class="st1" d="M63.3,115.3c-1.4,0.3-1.2-1.3-1.2-2.2C62.9,113.7,63,114.5,63.3,115.3z"></path>
	<polygon class="st1" points="115.1,114.3 115.1,113.8 116.3,114.3  "></polygon>
	<path class="st1" d="M30.9,114.1c0,1.3-1.7,0.4-2.2,1.4l-0.9-1.4H30.9z"></path>
	<path class="st1" d="M138.9,119.4c-0.8-0.3-0.5-1.5-1.5-1.2c-0.4,1.3,1.8,2.1,1,3.8l-1.4-1.7c-1.2,1.5,1.8,2.7,0.9,4.3l-1.7-1.9   c-0.8,1.6,2.1,3.2,1.2,5.1c-0.4-0.7-0.8-1.6-1.4-2c-0.3,1.5,1.5,2.9,1.2,4.4c-1.2,0.1-0.4-2.1-1.7-1l1.5,2.9   c-0.2-0.2-0.7-0.5-1-0.7c-1.5,1,1.1,2.1,0.7,2.8c-0.9,0.5-2.1,0.2-3.1,0.3c1.2-5.6-0.8-12.8,2.6-17.3l0.8-0.2l-0.3-1.2   c0.2,0.1,0.3,0.3,0.5,0.2c0.3-0.4-0.3-1-0.5-1.4c-0.2-0.1-0.3,0.1-0.5,0.2l0.3-0.5C137.8,115.8,139.1,117.3,138.9,119.4z"></path>
	<path class="st1" d="M145.8,114.8c-0.4,0.3-0.1,0.8-0.2,1.2c-0.7-0.2-1.7,0.4-2.2-0.5l1.2-0.9C144.9,115,145.4,114.7,145.8,114.8z"></path>
	<path class="st0" d="M108.9,115.3l-3.4,0.2c0.8-0.5,2.3-1,3.4-0.5V115.3z"></path>
	<path class="st1" d="M149.2,116c-0.9,0.6-1.9,0-2.6-0.5c0.2-1.3,1.7-0.5,2.6-0.7V116z"></path>
	<polygon class="st1" points="151.6,115.8 151.6,114.8 152.6,114.8  "></polygon>
	<path class="st1" d="M152.8,118.2c-0.4-0.6-0.2-1.5-0.2-2.2l1.9-1.2l0.5,3.1L152.8,118.2z"></path>
	<path class="st0" d="M85.1,115.8H81C81.9,115,84.1,115,85.1,115.8z"></path>
	<path class="st0" d="M93.5,116.2c-0.3,1-1.1,0.2-1.7,0.3c-0.8,0.9-2.8,0-2.8,1.7h-4.4c1.1-0.6,2.4-0.4,3.6-0.8v-0.9   c0.9-0.2,1.3,0.5,2-0.3l-2.2-0.4C89.8,115.2,91.8,115.7,93.5,116.2z"></path>
	<path class="st0" d="M113,116.5c-1.1-0.5-2.4-0.2-3.6-0.3c0.9,0,2.4-0.8,3.6-0.2V116.5z"></path>
	<path class="st1" d="M29.7,116.2L29,117l-0.3-1C28.9,116.4,29.4,116.2,29.7,116.2z"></path>
	<path class="st1" d="M67.8,120.8c-0.8,0.7-2,1.6-3.3,1.7c0.2-1.4,4.3-1,2.1-2.4c-1.7-1.5-3.8-3.8-6.4-2.7c-0.7,0.2-1.6,1.7-2,0.5   c-0.2-1.1,1.1-0.6,1.5-1.4c1.1-0.3,2.5-0.4,3.6,0C65.1,117.7,66.7,118.9,67.8,120.8z"></path>
	<path class="st1" d="M42.6,116.5c-0.1,0.9-2.4,1.3-3.8,1.4c-2.7-0.4-5.8-0.1-8.6-0.2l1.2-1.2H42.6z"></path>
	<path class="st1" d="M151.6,117.9c-0.4-0.2-0.7-0.8-0.2-1.2C151.8,116.8,151.5,117.5,151.6,117.9z"></path>
	<path class="st1" d="M145.8,118.2c-0.8-0.2-2.8,0.5-2.1-1.2h2.1V118.2z"></path>
	<rect x="147" y="117" class="st1" width="2.4" height="1.2"></rect>
	<path class="st0" d="M99.5,117.7l0.3,0.2c-1,1.1-2.7,0.9-3.9,0.7c-0.1-1.3-1.7-0.3-1.9-1.4C96.5,116.4,97.3,119.9,99.5,117.7z"></path>
	<path class="st0" d="M105.8,117.4c-1,0.7-3.1,1.2-4.4,0.3l-0.2-0.5C102.4,118,104.4,117.7,105.8,117.4z"></path>
	<path class="st1" d="M50.6,118.4c-0.7,0.2-1.6-0.4-2,0.5l0.3,1.4c-1,0.4-3.4-0.7-4.6,0c-0.5-0.8-0.2-1.9,0.3-2.6   C46.6,117.9,48.6,118.2,50.6,118.4z"></path>
	<path class="st0" d="M110.1,117.9c0.4,0.4-0.6,1.1-1,1.2l-2.4-0.2C107.4,117.9,109.2,118.8,110.1,117.9z"></path>
	<path class="st1" d="M71.4,119.1c-1.4-0.6-4.1,1.5-3.8-0.9C68.9,119.2,71.2,117,71.4,119.1z"></path>
	<path class="st0" d="M114.9,118.2c0.1,0.6-0.8,0.8-1.5,0.7c-0.3-0.1-0.8,0.2-0.9-0.3C112.8,117.8,114.1,118.3,114.9,118.2z"></path>
	<path class="st1" d="M133.1,123.7c-1.7-0.9,0.2-3.5,0.3-5.3C134,119.9,133.2,121.9,133.1,123.7z"></path>
	<path class="st1" d="M40.2,118.9c-3.2,0.9-7,0.3-10.5,0.5v-0.8L40.2,118.9z"></path>
	<path class="st1" d="M64.2,121l-0.7,0.3l-0.5-2.7C64.2,118.7,63.8,120.2,64.2,121z"></path>
	<path class="st1" d="M73.8,136.4h-0.7c-5.5-5.7-8.9-12.8-16.1-16.6c-2.2-1.4-3.4,1.9-5.5,0.8c1.9-1.9,4.9-1.7,7.5-1   C65.1,123.5,69.1,130.7,73.8,136.4z"></path>
	<path class="st0" d="M114.4,119.4v0.4h-4.1C110.9,118.3,112.9,119.8,114.4,119.4z"></path>
	<path class="st0" d="M90.2,120.1c0.7,1.4,2.1,0.1,3.1,0.7c-0.6,0.4-2,0.7-2.9,0.2c0-1.8-2.2-0.4-3.1-1.2c0.8-0.4,3,0.1,4.3-0.4   L90.2,120.1z"></path>
	<path class="st0" d="M96.2,119.6c-0.9,0.1-1.8,0.9-2.7,0.2C94.2,119.8,95.3,119,96.2,119.6z"></path>
	<path class="st0" d="M101.7,119.4c-0.6,1.2-2.6,0.6-3.6,0.4C98.9,119.3,100.6,119.9,101.7,119.4z"></path>
	<path class="st0" d="M106.2,119.6c-0.8,0.3-2.4,0.6-2.8-0.2h2.8V119.6z"></path>
	<path class="st0" d="M143.4,120.3h-2.8v-0.5C141.5,120,142.8,119.4,143.4,120.3z"></path>
	<path class="st1" d="M71.9,120.3c0.3,1.4-1.2,0.3-1.7,1c-0.5,0.2-0.8-0.3-1.2-0.5v-0.5C70,120.3,71.3,120.3,71.9,120.3z"></path>
	<path class="st0" d="M86.1,120.3c-0.1,1.1-1.6,0.8-2.4,1.2c-0.7,0.1-1.6-0.1-1.5-0.7C83.5,121.4,84.9,120.8,86.1,120.3z"></path>
	<path class="st0" d="M98.3,120.6c-0.8,1.1-2.8,1.6-4.1,0.7C95.4,121,97.3,120.8,98.3,120.6z"></path>
	<path class="st0" d="M105.3,121.3c-0.5-0.1-0.9,0-1.2,0.5c0.5,0.8,1.6,0.3,2.4,0.4l-1,0.8c0.9,0.9,2.6,0.1,3.6,0.7   c-1.4,1.4-4,0.3-5.7,0l0.4-0.5l-4-0.7c0.7-0.2,2.8,0.4,3.8-0.5c-0.8-1-2.4-0.1-3.4-0.7C101.9,121.5,103.8,119.8,105.3,121.3z"></path>
	<path class="st1" d="M43.8,121.3c0.5,0.4,0.2,1.1,0.3,1.7c-2.7,0.5-5.3-1.2-7.5,0.4c0.7,0.6,2.4,0,3.4,0.5c1.4,0.4,4-1,4.3,1.2v0.7   c-1.9,0.3-3.6-0.5-5,0.5c1.5,0.5,3.1,0.5,5,0.5v0.2c-2.1,0.6-5.2-0.2-6.9,0.8c0.2,0.4,0.7,0.5,1.2,0.4c-0.3,0.1-0.6,0-0.8,0.3   c-0.5,0.2-0.8-1.1-0.7-1.9c0.4-0.1,1,0.2,1.2-0.3c-1.6-1.4-6.3,1.1-6.7-2.1c0.5,0,0.9-0.1,1.2-0.5c-0.2-1.4-2.6-0.2-2.4-2.2   C34.2,121.1,39.4,121.4,43.8,121.3z"></path>
	<path class="st1" d="M59,122.2c0.2-0.7-3.3,0.7-3.4-1.2C57,120.8,58,121.4,59,122.2z"></path>
	<path class="st1" d="M55.4,122.7c-1.2,0.9-2.8-0.4-4.1,0.7c1.4,0.9,2.3,0.7,4.1,0.8l-0.3,1.6c-1.2,0.3-3-0.6-3.6,0.8   c1.1,0.1,2.1,0.6,3.4,0.4v2.7c-2.2,1.6-3.6-3.3-3.9,0.7c-0.4,1,0.8,1.4,1,1.2c-1.6,0.2-0.6,2-0.2,2.9l1.2,0.9   c-0.7-0.1-1.6,0.1-1.2,1c0,0.3-0.2,0.8,0.2,1c0.2-1.6,2.8,0.5,3.1-1.5c-1.7-1.5,0.7-2.5-1.4-3.6c0.1-0.5,0.6-0.9,1.2-0.7v6.7   c-0.8,0.1-2.6-1.3-3.1,0.3c0.3,2.8,0.3,5.5,0,8.1c8.8,5.2,21.4,2.5,30.2,0.5c-1.3,0.1-2.8,0.6-3.4,1.9c0.3,3.4-0.8,7.7,2,9.6   c8.6,0.8,15.8-2.4,24.4-0.9c-2.6,0.6-6.8-0.3-9.8,0.7c4.1,0.4,8.9,1.2,12.7,0.2l-0.7-0.5c4.1,0,9.2,2.5,12-1.2l0.2-5.2   c5.2,0.6,10.5,0,14.9-2c0.1,0.6,0.8,0.9,1.5,0.8l-1.2,0.9c-5.2,0-10.3,1-15.2,1l1,0.7l12.7-0.7c-1.4,1.3-3.7,1.2-4.8,2.9   c-1.3,0.4-2.8,1.9-4.1,1.2c-1.5,0.1-3.5-0.4-4.5,0.4c0.9,1,2.5,0.2,3.6,0.8c-1.9,2.2-4.5-1.1-6,1.4c0.5,0.4,1.3,0.2,1.9,0.2   c-4.8,2.8-12.2-0.3-17,1.7l10,0.5c-5,3.2-10.1-1.2-15.3,1c0.3,0.8,1.3,0.3,1.9,0.4h-7l4.6-0.2c0-1-1.3-1-2.2-1   c-2.1,0.5-4.5,0-5.5,1.5l3.1,0.5l-3.3-0.3c-0.8-0.6,0.6-0.8,0.5-1.4c-3.8,0.3-8.1-1.6-10.8-0.3c-3.1-0.9-6.3-1.7-9.2-3.1h9.4   l0.5-0.5l-1.2-0.7c-4.8-0.3-11.8,2-15.6-1.9c5.1-0.7,9.4,0.4,14.4,0c-1.5-1.8-4.7-0.6-7-1c-3.4-0.5-9,1.4-12-1.6   c1.1-0.2,2.8,0.4,3.4-0.5c-2.3-1.1-5.8,0.3-7.2-2.2c2.5-0.1,5.1,0.4,7.4-0.5c-3.2-1.3-8.1,0.9-10.5-1.9c0.8,0.5,1.9,0.2,2.6-0.2   c-1.5-1.6-4.5,0.6-5.5-2.2c1.4,0.1,2.9-0.1,3.8-0.7c-1.7-0.7-5,0.4-6-1.7c1.9-0.6,4.1,0.5,6-0.2c0.2-0.5-0.2-0.7-0.5-1l-6.7,0.3   c-0.4-0.7-1.3-0.7-1.4-1.5c3.5-0.1,5.8-1.4,8.4-3.3c-1.6-4.9,0-10.9-0.5-15.6C52.6,124.2,54.8,118.8,55.4,122.7z"></path>
	<path class="st0" d="M113.7,121.8c-0.1,0.2-1.5,0.5-1.5-0.3C112.8,121.3,113.1,122,113.7,121.8z"></path>
	<path class="st1" d="M77.2,133.8c-3.1-2.8-6.1-7.6-9.1-11.3l0.5-0.7C71.3,125.6,74.8,129.6,77.2,133.8z"></path>
	<path class="st0" d="M89,122.5l1.9,0.7c-1.1,1.1-3.3,0.9-4.6,0.2c-0.9-1.2-2.5,0.2-3.8-1.2l3.8-0.2c0.1,0.3-0.3,0.5-0.5,0.7   c2.2,0.8,0.9-1.3,3.2-0.9h1.2L89,122.5z"></path>
	<path class="st1" d="M72.6,122.7c-0.6,0.1-1.2,0.9-1.9,0.3l-0.2-1C71.2,122.2,72.5,121.5,72.6,122.7z"></path>
	<path class="st0" d="M98.8,122c-1.5,1.1-4.3,1.7-6.2,0.7l-0.3-0.2C94.3,122.6,96.7,122.2,98.8,122z"></path>
	<path class="st0" d="M112.2,122.5c-0.7,1.2-2.9,0.7-4,0.2C108.6,121.6,110.7,122.9,112.2,122.5z"></path>
	<path class="st1" d="M159,122.2c-0.2,1.8-2.5,0.7-3.8,1C155.6,121.1,157.8,123.3,159,122.2z"></path>
	<path class="st1" d="M48.2,132.1c0.3,1-0.8,2.1-1.2,3.1c0.9-2.7-0.3-8.2-0.3-12.7C47.2,125.8,46.6,129,48.2,132.1z"></path>
	<path class="st1" d="M124.5,132.3l-5.8-8.6l0.3-1.2C121.1,125.4,124.5,128.9,124.5,132.3z"></path>
	<path class="st1" d="M146.8,122.7c0.4,1.4-1.6,1.4-1.2,0H146.8z"></path>
	<path class="st1" d="M149.7,122.7c0,0.3-0.1,0.6,0.2,0.7c-0.3,0.9-1.3,0.4-1.9,0.5v-1.2H149.7z"></path>
	<path class="st1" d="M151.6,123.9h-0.7v-1.2C151,123,151.9,123.3,151.6,123.9z"></path>
	<polygon class="st1" points="66.2,123.4 66.9,123 67.4,123.4  "></polygon>
	<path class="st0" d="M82.7,123.4c-1.3,0.3-3.2,0.6-4.3-0.2c1.4,0.6,2.9-0.2,4.3-0.2V123.4z"></path>
	<path class="st1" d="M154.2,123.2c0.3,1.1-0.6,1-1.2,1.7l-0.7-1.9L154.2,123.2z"></path>
	<polygon class="st0" points="35.7,123.7 34,123.9 33.8,123.2 35.7,123.4  "></polygon>
	<path class="st1" d="M144.4,124.9c-1.6,0.1-3.4-0.2-4.8,0.2c1.9,1.2,5.1-0.5,6.5,1.5c-1.8,0-5.5,1.1-6.5-1v-1.9l4.8,0.5V124.9z"></path>
	<path class="st1" d="M73.1,124.4c0,0.3-1.3,0.6-1.2-0.2C72.3,124.2,72.9,124,73.1,124.4z"></path>
	<path class="st0" d="M104.6,124.6c-3.2,1.7-7.4,0.1-10.6-0.4C97.4,125.4,101.3,123.8,104.6,124.6z"></path>
	<path class="st1" d="M158.1,124.2c-0.3,0.1-0.3,0.4-0.3,0.7c-0.9-0.3-2.8,0.6-2.8-0.7H158.1z"></path>
	<path class="st1" d="M68.8,125.4c-0.9,0.3-2.7,0.5-2.4-1C67,125.1,68.7,124,68.8,125.4z"></path>
	<path class="st0" d="M90.9,124.9c-1.5,0.1-2.9,0.9-4.3,0.2l-0.5-0.7C88,123.8,89.3,125.4,90.9,124.9z"></path>
	<path class="st0" d="M112.7,124.6c-1.1,0.5-2.8,1.2-3.8,2l3.1-0.3l-1.2,1c0.2,0.4,0.8,0.2,0.7,0.7c-0.3,0.2-1.1-0.1-1.2-0.7   c-1.8-0.1-3.6-0.3-5.5-0.3v-0.4c0.7-0.1,1.6,0.2,2.2-0.3l-1-1.2c2.3-0.3,4-0.3,6-0.5H112.7z"></path>
	<path class="st1" d="M125,124.4c-0.8,1.1-0.6,3.2-0.3,4.1c-0.8-0.3-1.8-2.5-0.7-3.6C124.2,124.6,124.6,124.5,125,124.4z"></path>
	<path class="st1" d="M146.8,125.4l-1.2-0.5c0.2-0.5,0.8-0.2,1.2-0.3V125.4z"></path>
	<path class="st1" d="M150.9,126.8h-1.5v-1.4l-1.6-0.3v-0.5C150.1,123.8,149.5,125.9,150.9,126.8z"></path>
	<path class="st1" d="M152.1,124.9c0,0.2-0.1,0.3-0.3,0.5c-0.4,0-1.2-0.1-0.9-0.8C151.3,124.7,151.8,124.4,152.1,124.9z"></path>
	<path class="st1" d="M62.6,125.8h-0.5v-0.9C62.3,125.2,62.7,125.4,62.6,125.8z"></path>
	<path class="st0" d="M82,125.4c0.1,0.2-0.1,0.3-0.2,0.4l1.6,0.3c-1.1,2-3-0.1-4.8,0.2v-0.9H82z"></path>
	<path class="st0" d="M90.4,126.8l-1.4-0.5l3.3-0.9C92.3,125.7,91.3,127,90.4,126.8z"></path>
	<path class="st0" d="M86.3,126.1c-0.6,0.2-2.2,0.7-2.4-0.5L86.3,126.1z"></path>
	<path class="st1" d="M57.5,136.2c-0.3,1.2-0.1,2.8,1.2,3.6c-2.7-2.4-1.8-6-1.7-9.4l0.5-4.6C57.3,129.5,57,132.9,57.5,136.2z"></path>
	<path class="st1" d="M73.4,125.8l0.9,1.5L73.4,125.8z"></path>
	<path class="st0" d="M80.3,125.8h1H80.3z"></path>
	<path class="st1" d="M156.9,126.8h-4.8c-0.2-0.7,0.8-0.6,1.2-1l3.6,0.3V126.8z"></path>
	<path class="st1" d="M70.7,127.8c-0.5,0.4-1.3,0.1-1.9,0.2l-1-1.4C69.1,126.5,70.2,126.5,70.7,127.8z"></path>
	<path class="st0" d="M101.9,126.8l-0.5,1c0.6,0.4,1.5,0.1,2.2,0.2c-1.4,1.6-4.6,1-6.5,0.5c1.1-0.1,2.3,0.3,3.1-0.5l-2.8-0.5   C98.7,127.3,100.7,127,101.9,126.8z"></path>
	<path class="st1" d="M147.5,126.6h0.7H147.5z"></path>
	<path class="st1" d="M62.3,128c-0.2-0.1-0.3,0.1-0.5,0.2v-1.4h0.5V128z"></path>
	<polygon class="st1" points="35.4,127.5 34.7,127 35.4,127  "></polygon>
	<path class="st1" d="M63.8,130.2l-3.2,1.2c1.6-0.8,3.3-2,2.9-4.4C64,128,64.2,129.4,63.8,130.2z"></path>
	<path class="st0" d="M84.6,127.3c-1.4,0.5-3.1,1.3-5,0.9C81.2,128.3,82.8,127.2,84.6,127.3z"></path>
	<path class="st0" d="M91.8,128.2c-0.9,1.7-3.7-0.3-4,1.7c-1.3,0.7-3,1.5-4.4,0.5c0.9-0.2,2.3,0.4,2.7-0.5v-0.7   c0.7-0.3,1.1,0.6,1.7,0l-2-1.4L91.8,128.2z"></path>
	<path class="st1" d="M146.3,127.8c-0.1,0.3,0.3,0.4,0.5,0.7l1.4-0.7c1,2.3,1.6-1.5,2.9,0.4c-1.2,0.5-4.1,0.2-5.7,0.3l-1-0.7H146.3z   "></path>
	<path class="st1" d="M155.9,128c-1.4-0.3-3.1,1.7-3.8,0C153.5,128.4,154.6,127.3,155.9,128z"></path>
	<path class="st1" d="M44.6,128.7c-1.5,0.6-3.5-1.8-3.9,0.7c-0.6,0.1-0.8-1.3-0.9-1.4l4.8,0.2V128.7z"></path>
	<path class="st0" d="M110.8,128.7c-1.6,0.9-3.9,0.5-5.5-0.2C106.9,127.1,109,129,110.8,128.7z"></path>
	<path class="st1" d="M72.2,129.9c-0.8,0.6-2.3,0.1-2.2-0.9C71.1,129,71.7,128.8,72.2,129.9z"></path>
	<polygon class="st1" points="36.6,129.7 35.7,129.2 36.6,129.2  "></polygon>
	<path class="st1" d="M89.9,131.8l-0.2-0.2l3.8-2.4C92.6,130.3,92.2,133.3,89.9,131.8z"></path>
	<path class="st1" d="M96.6,145.3l-0.7-0.7c8.1-5.3,16.9-10.2,25-15.4l0.5,0.5L96.6,145.3z"></path>
	<path class="st1" d="M43.1,130.4v0.5c-1.1,0.4-1.2-0.7-2.1-0.7C41,129.1,43.4,129,43.1,130.4z"></path>
	<path class="st0" d="M102.2,129.4c0.2,0.8-1,0.5-1,1.2l2.2,0.3c-2,1.6-3.9-1.3-6.3-1C98.4,130.1,100.5,129.6,102.2,129.4z"></path>
	<path class="st0" d="M110.6,130.2c0,0.3-0.4,0.7-0.8,0.7c-2.3-1.7-3.1,2.4-5.2,0l2.8-0.3l-0.4-0.7L110.6,130.2z"></path>
	<path class="st1" d="M154,131.6c-0.3,3.5-4.2,1.3-6.2,1.9c0-0.6-0.1-1.3-0.8-1.4h-0.4c1.1-0.8,1.3,0.5,2.6,0l1.7-1.7   C151.3,131.7,153,131.1,154,131.6z"></path>
	<path class="st1" d="M67.4,133c0.4-0.2,0.1-0.8,0.2-1.2l-0.2-0.2c2.4,1.2,1.3,4.5,0.9,6.2l-0.7,1.7c-1.5-0.6-2.9-1.5-4.1-2.9H64   c0.7-1.8-1.2-3.1-1.4-4.8c1.3,0.7,1,3.3,2.6,3.9c1-1.8-1.5-3-0.7-4.6c0.5,0.9,0.7,2.1,1.7,2.7c0.8-1.2-0.5-2.1-0.5-3.2   C66.2,131.2,66.4,132.6,67.4,133z"></path>
	<polygon class="st1" points="145.1,131.1 145.1,130.6 145.8,130.6  "></polygon>
	<path class="st1" d="M39.5,130.9c-0.1,0.3,0.2,0.8-0.2,0.9v-0.9H39.5z"></path>
	<polygon class="st1" points="138.9,131.6 138.9,130.9 139.6,131.6  "></polygon>
	<path class="st1" d="M73.8,132.1c-1.2,0.2-1.7-0.2-2.4-1C72.4,131.1,73.6,130.9,73.8,132.1z"></path>
	<path class="st1" d="M143.7,132.6c-0.3,0.3-1.6,0.1-1.5,1.2c0.1,0.2-0.1,0.3-0.2,0.4c0.8,1.1,1.8,0.1,2.6,0.3c0.6-1.4,1.1,0.6,2,0   h5.2l-2.8,3.8c-0.4-1.1-1.6,0.2-2.2-0.2l1-1c-1.3,0.1-3.3-0.3-3.9,1.2c1,1.6,2.8,0.1,4.3,0.7c-2.1,4.6-8.3,1.8-12,2.9   c2.6,1.6,5.9,0,8.7,0.5c-1.3,3.6-5.6,1.1-8.7,2.2c0,0.5,0.1,0.9,0.5,1.2c1.9-0.2,3.8-0.7,5.5-0.5c-0.9,2.8-4.1,0.9-5.5,2.1   c0.8,0.9,1.3,0.4,2.4,0.5c-1.3,1.3-2.1,1.7-4.1,1.5c2.6-2.1,0.1-5.5,0.5-8.4c-1.6-0.9-3.2,1.2-5,1.2c-5.9,2.1-12.6,0.3-17.8-2.2   c1.1-1.3,3.5,0.6,5.1-0.7c-2.3-0.9-4.2-0.3-6.8-0.5c-0.6,1.5-4.1,0.4-4.5,3.1c-2.1,2.1,0.2,9.4-5.3,6.5c-1-0.7-2.3-0.9-3.1-2.2   c0.7-0.5,1.5-0.8,2.1-1.6c1.5,1,3.2,0,4.8,0v-0.5h-3.8c1-2,4.4-0.7,4.6-2.4H105c3.4-1.8,6.4-5.3,10.6-4.6c-0.3-0.9-1.6-0.3-2.4-0.5   c2.7-4.3,7.7-0.6,11-1.4c0.9,1.6-0.8,4,1.5,5.3c0.9-0.2,2.4,0.4,2.9-0.5c1.9,0.6,4.9,0.9,6.7-0.2c-0.1-3.2-6.4-1.1-4.3-6   c0.6-0.2,1.3,0,1.6,0.9c-0.4,1.2-0.4,3.5,1.5,3.4c0.6-0.2,2,0.4,2.6-0.5c1.8,0.6,4.8,0.9,6.3-0.2c0.2-2.9-5.8-1.1-4.1-4.8   c0.9,0.8,2.7,0.3,3.6,0.4l0.7-0.9l-0.7-0.7C143.6,131,143.4,131.9,143.7,132.6z"></path>
	<path class="st0" d="M98.8,132.1c-0.5,0.6-1.2,0.8-1.9,0.7C95.4,130.8,98.5,132.7,98.8,132.1z"></path>
	<path class="st1" d="M37.8,132.6c0.1,0.2-0.1,0.3-0.2,0.4l-0.2-0.7C37.5,132.4,37.6,132.6,37.8,132.6z"></path>
	<path class="st0" d="M109.1,133.3c-0.7,1.2-1.4-0.2-2.1-0.3c-1.8,0.2-3.9-0.4-5.3,0.5l-0.3-0.2c2.4-1.3,5.3-0.7,7.7-0.5V133.3z"></path>
	<path class="st1" d="M41,133c0,0.5-0.7,0.2-1,0.3l-0.2-0.7C40.2,132.7,40.4,133.2,41,133z"></path>
	<path class="st1" d="M61.4,132.6l0.9,2.1L61.4,132.6z"></path>
	<path class="st0" d="M86.1,132.6c0,0.4-0.4,0.5-0.7,0.4h-0.8C84.8,132.5,85.7,133.1,86.1,132.6z"></path>
	<path class="st1" d="M75,133.8v0.4c-0.8,0.2-1.4,0-1.4-0.9C74.1,133.3,74.7,133.2,75,133.8z"></path>
	<path class="st1" d="M91.4,137.1c-0.4,4.9,3.8,8.8,7.2,11.3c-2,1.4-3.3-1.3-4.8-2.2c-2-1.6-1-4.7-3.4-6c-0.6-2-0.9-5,0.2-6.9   C93.7,133.4,90.8,135.7,91.4,137.1z"></path>
	<path class="st0" d="M100.5,133.8c-0.6,1.3-2.7,0.4-3.6,0.7l-0.3-0.3C97.7,134.3,99.3,134.2,100.5,133.8z"></path>
	<path class="st1" d="M44.3,135.4c-0.2-0.6,0.2-1,0.7-1.2v1.2H44.3z"></path>
	<path class="st1" d="M88.7,136.4c-3.4-0.2-7.7-1.6-11.3-0.7h-0.7c3.7-1.4,8.5-1.7,12,0.2V136.4z"></path>
	<path class="st1" d="M70.7,135.7c0.1,0.4-0.6,0.1-0.9,0.2l0.2-1.2C70.3,135,70.3,135.4,70.7,135.7z"></path>
	<path class="st0" d="M103.6,135c-1.6,0.6-4,0.6-6,0.9c-0.4-0.2-1.1-0.4-1.2-0.7C98.6,135.5,101.3,134.7,103.6,135z"></path>
	<path class="st0" d="M150.2,135.9c-0.1,1.2-1.1-0.2-1.5,0.5c-1.8-0.6-3.5,0.2-5.3-1c2,0.1,3.6-1.2,5.1,0.3   C149,135.8,149.7,135.5,150.2,135.9z"></path>
	<path class="st0" d="M106.7,135.7h-2.1c0.4-0.9,1.4-0.3,2.1-0.5V135.7z"></path>
	<path class="st1" d="M62.3,137.1c-0.7-0.3-1.5-1.5-2.4-0.7c0.2,0.6,0.4,1.8,1.5,1.4h0.7c-0.2,0-0.4,0.2-0.5,0.3   c-0.2,0.4,0.2,0.7,0.5,0.9h0.7l-0.2,0.3c0.4,1.1,2.3,0.1,2.6,1.4c-3.2,1.2-3.4-2.8-5.3-3.8l0.3-1.2C61,135.9,62,136.2,62.3,137.1z"></path>
	<path class="st0" d="M119.9,136.6c-0.3,0.1-0.8-0.2-0.9,0.3c0.2,0.4,0.8,0.1,1.2,0.2c-0.6,0.6-1.8,0.9-2.9,0.7   c-0.8-0.7,0.2-1.7,0.9-1.6C118.8,135.7,120,135.9,119.9,136.6z"></path>
	<path class="st1" d="M41.2,138.6l-1.9-2c0.8,0.1,2.7,0.1,3.8-0.4L41.2,138.6z"></path>
	<path class="st1" d="M71.7,136.9c-1,0.3-0.9,1.4-2.2,0.9C69,136.7,70.9,136.3,71.7,136.9z"></path>
	<path class="st1" d="M87,137.6c-1.4-0.3-3.7,0.8-4.3-1C84.5,136.2,85.6,137.3,87,137.6z"></path>
	<path class="st0" d="M123.5,136.9c-0.1,0.5-1.2,0.6-1.7,0.2C122.2,137,123,136.2,123.5,136.9z"></path>
	<path class="st1" d="M82.7,138.6c-1.4,0.5-1.5-0.8-2.6-1.2c-0.7,0.4,0.1,0.9,0.2,1.4c-2.1,1.1-1.7-2.1-3.6-1.4l1,1.6   c-1.4,1.3-2-1.2-3.4-0.7l0.7,1.2l-2.6,0.7c-0.5-1.4,1.6-2.9,2.9-3.3C78.1,136.5,80.5,137.3,82.7,138.6z"></path>
	<path class="st1" d="M88.7,139v0.5l-2.1-0.9C87.4,138.4,88,138.9,88.7,139z"></path>
	<path class="st1" d="M99.5,140c-2.1-1-4.6-0.1-6.5-0.2l-0.2-1L99.5,140z"></path>
	<path class="st0" d="M123.8,139.3l-5.1,0.2c1.2-0.9,3.4-0.3,5.1-0.5V139.3z"></path>
	<path class="st1" d="M90.4,141.7c1.3,0.9,1.6,2.9,0.7,4.1c-0.8,0.6-1.6,1-2.6,1.2c0.4-0.2,0.1-0.7,0.2-1l-1.2-0.7   c0.6-1.1,2.4-0.7,2.9-2.2c-1.2-0.4-2.4-2.2-3.6-1.2l1.2,1.2l-2.2,1.2c-0.9-0.8,0.1-4-2.1-3.3c-0.7,1.3-2.3,2.6-1.7,4.3   c2.9-2.1,3.3,1.1,6,1.7c-1.8,1.1-2.8-1-4.3-1.2c-9.7,1.8-21.1,4.8-30.5,0.2l0.2-6.7C65.2,146.6,78.5,136.2,90.4,141.7z"></path>
	<polygon class="st0" points="136.5,139.5 136.5,139.3 143.7,139.5  "></polygon>
	<path d="M144.6,139.5h2.9H144.6z"></path>
	<path class="st0" d="M48.9,140c0.6,0.7,2.4-0.4,2.4,1v0.7h-2.9c-0.8-1.5-1.9,0.9-3.1-0.3c1.4,0,2.1-1.8,3.6-1.6V140z"></path>
	<path class="st0" d="M69.3,140.5h1.4H69.3z"></path>
	<path class="st1" d="M99.5,141c-1.7,0.3-5.1,1.7-6.2-0.5L99.5,141z"></path>
	<path class="st1" d="M128.6,143.8l5.7-1.6c-0.2,2.1,0.3,3.9,0.7,5.7c-7.5,4.7-18,2.6-25.4-0.9l-3.6,0.2c0.8-2.3,1-5.2,3.4-6.5   C115.8,141.7,121.5,145.8,128.6,143.8z"></path>
	<path class="st0" d="M82,141.7c1,2.3-2.8,1.2-2.2,3.6h-0.4c0-1.5-1.1-3.3,0-4.3C80.3,141.2,81.5,140.4,82,141.7z"></path>
	<path class="st0" d="M129.8,141.7c-3.5,0.8-7.7,0.5-11.3,0.2c1.6-1.1,4.5,0.2,6.2-0.5L129.8,141.7z"></path>
	<path class="st0" d="M59,143.6c-0.1,1.1-0.7,2.2-1.7,2.6c-1.3,0.4-2.2-0.5-2.7-1.4c-0.2-1.2,0.2-2.2,1.2-2.9   C57.2,141.6,58.7,142.2,59,143.6z"></path>
	<path class="st0" d="M77.2,145.8c-1.3,0.8-1.6-0.8-2.6-1.5l-0.3,2.2c-1.1-0.7-0.8-2.7-1.2-4.1c1.2-0.5,1.6,1,2.4,1.4l0.3-1.9   C77.3,142.1,76.7,144.5,77.2,145.8z"></path>
	<path class="st1" d="M81,142.2c-0.2,0.2-0.5,0.6-0.9,0.4v-0.7C80.4,142,80.9,141.7,81,142.2z"></path>
	<path class="st0" d="M113.7,143.4h-2.2c-0.2,0.8,0.8,0.8,1.2,1.2c0,1-2.4-0.2-2.6,1.6c-0.4-1.3,0.6-2.7,0.9-4   C111.9,142.6,113.3,142.3,113.7,143.4z"></path>
	<path class="st1" d="M96.6,142.4c-0.6,0.1-0.8,1.1-1.6,0.7c0-0.2-0.2-0.3-0.3-0.5C95.4,142.7,96,142.5,96.6,142.4z"></path>
	<path class="st0" d="M63,144.1c-0.8,0.9-0.3,1.6-0.4,2.9h-1c-0.1-0.6,0.3-1.4-0.5-1.7c-1.6-0.4-0.2,2-1.9,1.4l0.7-4.1   C61.2,142.6,62.9,142.5,63,144.1z"></path>
	<path class="st0" d="M72.2,142.6c0,1.2-1.7,0.6-2,1.5c0.5,0.6,1.8-0.3,2,0.7c-0.6,0.4-1.9,0.1-1.7,1.2c0.8,0.9,1.9-0.8,2.4,0.5   c-0.7,0.9-2.1,0.1-2.9,0.7c-0.7-1.1-0.6-2.6-1-3.8C69.9,142.8,71,142.5,72.2,142.6z"></path>
	<path class="st1" d="M57.8,143.6c-0.4,0.5-0.3,1.5-1,1.4c-0.7,0.2-0.7-0.2-1-0.7C55.7,143.1,57.3,142.2,57.8,143.6z"></path>
	<path class="st0" d="M67.6,144.6c0,1.4-0.3,2.7-1.9,2.8c-1.4,0.2-2.2-0.9-2.2-2.1c-0.5-1.1,0.9-1.9,1.5-2.2   C66.2,142.7,67.1,143.6,67.6,144.6z"></path>
	<path class="st0" d="M115.4,143.6c-0.2,1.5-0.6,3.1-1.5,4.1c-0.8-1.2,0.5-2.7,0.7-4.1H115.4z"></path>
	<rect x="60.9" y="143.8" class="st1" width="0.7" height="0.5"></rect>
	<path class="st1" d="M66.4,144.8c-0.1,0.6,0.3,1.4-0.5,1.7c-0.5,0.1-1.1-0.2-1.2-0.7C63.9,144.4,66.2,143.3,66.4,144.8z"></path>
	<path class="st0" d="M119.7,145.5c-0.6-0.3-1.7-0.3-2.2-0.2c-0.1,1.2,1.5,0.6,1.7,1.4c-0.6,0.6-2-0.2-2.2,0.7   c0.5,0.8,1.7,0.4,2,1.2c-0.9,0.2-2.1-0.3-3.2-0.4l1.2-4.1C117.8,144.8,119.9,144,119.7,145.5z"></path>
	<path class="st0" d="M132.9,146.5c0.4,0.9-0.6,1.6-1.2,1.9c-1.4,0.4-2.6-0.5-2.9-1.7c0-1.1,0.3-2.2,1.4-2.6   C131.7,144,133.1,144.8,132.9,146.5z"></path>
	<path class="st1" d="M131.9,146c0,0.5,0.1,1.1-0.5,1.4c-0.7,0.4-1.2-0.4-1.4-0.9l0.7-1.5C131.1,145.4,131.9,145.3,131.9,146z"></path>
	<path class="st0" d="M124,146.2c-1.3,1,0.7,2.8-1,3.2c-0.4-0.6,0-1.9-1.2-1.7c-1,0.2,0.1,1.7-1.2,1.4v-3.8   C121.8,145.6,123.7,144.5,124,146.2z"></path>
	<path class="st0" d="M128.1,146c-1.2,1.2,1.4,2.7-0.5,3.1c-0.2-0.5-0.5-0.9-0.7-1.4c-0.7-0.3-1.2,0.3-1,0.9v0.8h-0.7l-0.2-4.1   C126,145.5,127.7,144.7,128.1,146z"></path>
	<path class="st1" d="M126.9,146.2c0,0.3-0.1,0.4-0.3,0.5c-0.2,0-0.5,0.1-0.7-0.2C126,146.4,126.6,145.6,126.9,146.2z"></path>
	<path class="st1" d="M122.8,146.5c-0.2,0.4-0.6,0.1-1,0.2v-0.5C122.2,146.3,122.6,146,122.8,146.5z"></path>
	<path class="st0" d="M103.8,147c-0.5,0.8-2,0.3-3.1,0.4l-0.2-0.7C101.4,147.2,102.7,146.9,103.8,147z"></path>
	<path class="st1" d="M94.2,148.6c-0.4,0.5-1.1,0.2-1.6,0.3v-1.7C93.1,147.7,94,147.8,94.2,148.6z"></path>
	<path class="st0" d="M77.7,149.6l-5.8,0.2C73.8,149.8,75.8,149,77.7,149.6z"></path>
	<path class="st1" d="M118,151c-0.3,2.2,1.3,8.6-4.1,6.5c-10-2.2-21.6-1-31.7,0.3c-3.9,0-1.4-5.3-2.1-7c12.3,0.2,25.1-2.6,37.7,0.5   L118,151z"></path>
	<path class="st0" d="M99.8,154.6c-0.5,1-1.7,1-2.4,0.8c-0.8,0.1-1-0.8-1.2-1.2c0-1-0.2-2.1,0.2-2.9h0.5c0.6,1.1-0.5,3.1,1.2,3.6   c1.4-0.9,0.3-3.1,0.7-3.9C99.8,151.8,99.8,153,99.8,154.6z"></path>
	<path class="st0" d="M103.8,151.3v0.5c-0.7,0.1-1.7-0.4-2.1,0.4c0.1,1.1,1.6,0,1.9,1c-0.6,0.6-1.7-0.2-2.2,0.7   c0.7,0.8,2,0.5,2.4,1.2c-0.8,0.5-1.9,0.2-2.8,0.3c-0.4-1-0.4-3.1,0-4.4C101.9,151.1,103,150.8,103.8,151.3z"></path>
	<path class="st0" d="M95,152v0.7c-1.1-0.6-2.7-1-2.9,0.7c0.2,0.6,0.4,1.1,0.9,1.5c0.4-0.1,1,0.2,1.2-0.3l-0.7-0.9   c0.3-0.2,0.8-0.7,1.5-0.5c0.1,0.7,0.6,1.3,0.4,2.2c-1.3,0.3-3.7,0.6-4-1.2c-0.4-1.4,0.4-2.6,1.6-2.9C93.9,151,94.3,151.8,95,152z"></path>
	<path class="st0" d="M108.4,152.5c-1.1,0.7,0.3,3.1-1.2,3.1c0.1-0.7-0.2-1.3-0.7-1.7c-1.1-0.2-0.7,1-1,1.5h-0.7l0.5-4.1   C106.3,151.7,107.9,151.2,108.4,152.5z"></path>
	<path class="st0" d="M112.5,153.7c-1.1,0.6,0.3,1.8-0.5,2.6c-0.7-0.3-0.6-2.5-1.9-1.7c-0.6,0.4,0.2,1.8-1,1.5l0.5-4.3   C110.7,152,113.3,152,112.5,153.7z"></path>
	<path class="st0" d="M77.9,152.7l-6-0.2C73.9,151.1,75.8,153,77.9,152.7z"></path>
	<path class="st0" d="M70.5,152.5c-1.9,0.3-4.8,0.3-7,0C65.5,152.5,68.2,152.5,70.5,152.5z"></path>
	<path class="st0" d="M89.4,156.1c-1.4,0.5-1.4-1.2-2.4-1.7l-0.4,2.2c-1.4-0.7-0.5-3.4-0.8-4.1c1.1-0.2,1.7,1,2.2,1.7   c0.7-0.5-0.4-2.2,1-2C89.1,153.5,89.6,154.6,89.4,156.1z"></path>
	<path class="st0" d="M84.9,152.7c-0.7,0.6-1.9-0.2-2.4,0.7c0.3,1.2,2.1-0.2,1.9,1.2c-0.6,0.1-1.4-0.2-1.9,0.3   c-0.1,1.5,2.4,0.2,2.1,1.7h-2.8v-4.1C82.8,152.6,84,152.3,84.9,152.7z"></path>
	<path class="st1" d="M107.2,152.7c-0.2,0.5-0.6,0.2-1,0.3v-0.5C106.6,152.6,107,152.3,107.2,152.7z"></path>
	<path class="st0" d="M116.8,156.1c-0.9,0.3-2.7-1.4-3.4,0.2c-0.3-1,0.4-2.6,1-3.8C116.3,152.4,116.2,154.8,116.8,156.1z"></path>
	<path class="st1" d="M111.5,153.2c-0.2,0.4-0.8,0.2-1.2,0.2C110.3,152.7,111.2,152.9,111.5,153.2z"></path>
	<path class="st0" d="M127.8,154.4c-2.1,0.9-5.5,0.4-7.9,0.5v-0.5H127.8z"></path>
	<path d="M77.2,155.4h1H77.2z"></path>
	<polygon class="st0" points="75.5,160.2 74.6,159.9 74.8,160.2  "></polygon>
	<path class="st0" d="M85.8,160.6c-2.7,0.4-6.7,0.4-9.3,0C79.4,160.3,82.6,160.3,85.8,160.6z"></path>
	<path class="st0" d="M100.7,160.9c-4.6-0.1-9.1,0.2-13.9-0.3l0.2-0.4C91.6,160.4,96.5,160.6,100.7,160.9z"></path>
	<path class="st1" d="M87.8,162.8c-1.9-0.4-3.6,0.9-5.1-0.2L87.8,162.8z"></path>
	<path class="st1" d="M101.9,163c-0.7,0.5-1.7,0.2-2.6,0.3C100,162.8,101,163.1,101.9,163z"></path>
	<path class="st0" d="M93.3,163.8h1.2H93.3z"></path>
	<path class="st0" d="M97.4,177c0.1,1.3-0.6,2.8-2,3.1c-1.3,0.1-2.8-0.6-3.1-1.9c-0.1-1.4,0.6-2.8,1.9-3.2   C95.6,174.9,97,175.6,97.4,177z"></path>
	<path class="st1" d="M83.9,142.5c0,0-0.5,0.5-0.5,0.8c0,0.3,0.8,0.1,0.9,0.3c0.1,0.2-0.3-1.2-0.3-1.2"></path>
	<path class="st1" d="M114.9,153.9c0,0-0.5,0.6-0.5,0.9c0,0.4,0.9,0,1,0.2c0.1,0.2-0.5-1.3-0.5-1.3"></path>
</g>
<g id="text">
	<g>
		<path class="st0" d="M70.4,176.4c0.1-0.3,0.1-0.7,0.5-0.6c0.3,0.1,0.3,0.3,0.4,0.6c0.1,1.1,0.4,2.1,1.5,2.4    c0.9,0.2,2.1-0.1,2.4-1.1c0.2-0.9-0.5-1.5-1.2-1.9l-0.8-0.5c-1.6-1-2.8-2.2-2.2-4.3c0.3-1.1,1.1-1.9,2.1-2.4    c1.1-0.5,2.3-0.5,3.5-0.2c0.8,0.2,2.1,0.8,2.8,1.3c0.5,0.4,0.4,0.6,0.2,1.2l-0.2,1c-0.1,0.3-0.2,1-0.6,0.9c-0.4-0.1-0.4-0.7-0.4-1    c0-0.6,0-1.1-0.3-1.6c-0.4-0.6-1-0.9-1.7-1.1c-1.1-0.3-2.5,0-2.8,1.3c-0.4,1.4,1.1,2.2,2,2.9c1.2,0.9,2.7,2.1,2.3,3.9    c-0.6,2.3-3.4,2.9-5.4,2.4c-0.6-0.2-1.7-0.6-2.2-1c-0.3-0.3-0.2-0.5-0.1-0.9L70.4,176.4z"></path>
		<path class="st0" d="M63.7,172c0.2-0.5,0.4-0.8-0.2-1c-0.3-0.1-1.1-0.4-1.4-0.5c-0.5-0.1-0.9,0.2-1.2,0.6    c-0.2,0.2-0.4,0.5-0.7,0.3c-0.3-0.1-0.3-0.3-0.2-0.6c0.2-0.5,0.4-1,0.7-1.4c0.2-0.5,0.4-1,0.5-1.5c0.1-0.2,0.3-0.4,0.5-0.3    c0.8,0.3-0.4,1.7,1.3,2.4l0.7,0.3c0.6,0.2,0.6-0.1,0.8-0.5l0.8-1.9c0.2-0.4,0.4-1,0.3-1.5c-0.1-0.5-0.6-0.8-1.1-1    c-1.2-0.5-2.3-0.4-3.3,0.4c-0.2,0.2-0.5,0.5-0.8,0.3c-0.3-0.1-0.3-0.3-0.2-0.5c0.1-0.2,0.3-0.5,0.4-0.7l0.7-1.3    c0.1-0.2,0.2-0.3,0.4-0.2c1.2,0.5,2.4,1.1,3.7,1.6c1.6,0.7,3.2,1.3,4.8,1.9c0.2,0.1,0.4,0.2,0.3,0.5c-0.1,0.3-0.4,0.3-0.6,0.2    c-1.2-0.3-1.3,0.1-1.7,1.1l-2.4,5.9c-0.4,1-0.7,1.5,0.3,2.1c0.2,0.1,0.5,0.3,0.4,0.5c-0.1,0.3-0.3,0.3-0.6,0.2    c-1-0.4-1.9-0.9-2.9-1.3c-1.7-0.7-3.5-1.4-5.2-2.1c-0.4-0.2-0.2-0.4,0-0.7l0.6-1.3c0.1-0.2,0.2-0.5,0.5-0.4    c0.3,0.1,0.3,0.4,0.3,0.7c0.1,0.4,0.2,0.8,0.4,1.2c0.2,0.5,0.7,0.7,1.2,0.9c0.3,0.1,1.2,0.5,1.5,0.4c0.2,0,0.4-0.5,0.5-0.7    L63.7,172z"></path>
		<path class="st0" d="M50.8,169.5c-0.5,0.4-0.7,0.6-1.3,0.3c-0.5-0.3-0.4-0.5-0.3-1l1.3-9.4c0-0.3,0.1-0.7,0.1-1    c0-0.4-0.1-0.5-0.4-0.8c-0.3-0.2-0.6-0.3-0.4-0.7c0.2-0.3,0.5-0.1,0.7,0c0.6,0.4,1.2,0.8,1.8,1.2c0.8,0.5,1.5,0.8,2.3,1.3    c0.2,0.1,0.5,0.3,0.3,0.6c-0.3,0.5-1.1-0.6-1.5,0c-0.1,0.2-0.2,0.5-0.2,0.7l-0.3,1.5c-0.1,0.7-0.2,0.6,0.4,0.9l2,1.2    c0.5,0.3,0.5,0.3,1-0.1c0.4-0.3,0.9-0.8,1.2-1.2c0.7-1.1-1.3-1.3-0.9-2c0.2-0.3,0.5-0.1,0.7,0c0.5,0.3,1,0.6,1.4,0.9    c0.5,0.3,1,0.6,1.5,0.8c0.2,0.1,0.5,0.3,0.3,0.6c-0.2,0.3-0.4,0.2-0.6,0.1c-0.5-0.2-0.7-0.3-1.1,0c-0.4,0.3-1.2,0.9-1.6,1.2    l-2.1,1.6L50.8,169.5z M54.7,165.7c0.1-0.1,0.3-0.3,0.4-0.4c0.1-0.2-0.2-0.3-0.4-0.4l-1.3-0.8c-0.1-0.1-0.5-0.4-0.6-0.2    c0,0.1-0.1,0.4-0.1,0.5l-0.6,3.3L54.7,165.7z"></path>
		<path class="st0" d="M43.1,162.2c-0.7,0.9-1.1,1.2-0.3,2c0.1,0.2,0.4,0.4,0.2,0.6c-0.2,0.2-0.4,0.2-0.6,0    c-0.7-0.6-1.4-1.2-2.1-1.8c-0.7-0.5-1.4-1-2-1.6c-0.2-0.2-0.3-0.3-0.1-0.5c0.2-0.2,0.4-0.1,0.6,0c1.1,0.6,1.2,0.3,2-0.7l4-5    c0.6-0.7,0.9-1.4-0.1-2.2c-2-1.6-3.4,0-4-0.4c-0.2-0.2-0.2-0.3,0-0.5c0.4-0.5,1.1-1,1.6-1.5c0.3-0.4,0.4-0.1,0.8,0.1    c1.1,0.9,2.1,1.8,3.1,2.6c1.1,0.9,2.3,1.7,3.4,2.6c0.2,0.2,0.3,0.3,0.1,0.5c-0.2,0.2-0.5,0.2-0.7,0c-1-0.6-1.2-0.3-1.9,0.6    L43.1,162.2z"></path>
		<path class="st0" d="M35.9,145.5c0,1.7-0.9,3.3-2.1,4.3c-1.2,1-2.8,1.4-4.4,1.2c-1.7-0.2-3.1-1-4.2-2.4c-2.1-2.7-2.4-6.6,0.4-8.9    c2.7-2.2,6.5-1.4,8.6,1.3C35.1,142.3,35.9,144,35.9,145.5z M27.9,142c-1.7,1.3-3.8,4.4-2.2,6.4c1.4,1.8,4.2,0.5,5.6-0.6    c1-0.8,1.8-1.7,2.3-2.9c0.5-1.1,0.7-2.5-0.1-3.6C32.1,139.5,29.4,140.8,27.9,142z"></path>
		<path class="st0" d="M21.5,135.4c0.5-0.3,0.8-0.4,0.4-0.9c-0.2-0.3-0.6-1-0.8-1.3c-0.3-0.4-0.8-0.4-1.3-0.3    c-0.2,0.1-0.6,0.1-0.8-0.2c-0.1-0.3,0-0.4,0.2-0.5c0.5-0.2,0.9-0.5,1.4-0.7c0.4-0.2,0.9-0.5,1.3-0.8c0.2-0.1,0.5-0.2,0.6,0.1    c0.4,0.8-1.4,1.1-0.5,2.7l0.4,0.7c0.3,0.5,0.5,0.3,0.9,0.1l2-1.1c0.9-0.5,1.3-0.7,0.9-1.7c-0.1-0.2-0.2-0.5,0.1-0.7    c0.2-0.1,0.4,0,0.5,0.2c0.5,0.8,0.8,1.6,1.3,2.5c0.4,0.8,0.9,1.5,1.3,2.2c0.1,0.2,0.1,0.4-0.1,0.5c-0.3,0.1-0.5-0.1-0.6-0.2    c-0.8-0.9-1-0.7-2-0.2l-5.6,3.1c-0.9,0.5-1.4,0.7-1,1.8c0.1,0.2,0.3,0.5,0,0.7c-0.3,0.1-0.4,0-0.5-0.2c-0.8-1.4-1.6-3-2.4-4.4    c-0.6-1-1.2-2-1.8-3c-0.2-0.4-0.3-0.5,0.2-0.8l1.5-0.8c0.2-0.1,0.5-0.2,0.6,0.1c0.2,0.3-0.1,0.7-0.3,0.9c-0.3,0.5-0.4,0.7-0.4,1.3    c0,0.6,0.4,1.1,0.7,1.6c0.1,0.2,0.4,0.7,0.6,0.8c0.2,0.1,0.5-0.1,0.6-0.2L21.5,135.4z"></path>
		<path class="st0" d="M18.9,117c1-0.3,1.4-0.4,1.3-1.5c0-0.2-0.1-0.6,0.2-0.7c0.3-0.1,0.4,0.1,0.5,0.3c0.3,0.9,0.5,1.8,0.8,2.7    c0.3,0.8,0.6,1.6,0.8,2.5c0.1,0.2,0.1,0.4-0.2,0.5c-0.3,0.1-0.4-0.1-0.5-0.3c-0.5-1.1-0.8-0.9-1.9-0.6l-7.2,2.3    c-0.5,0.2-0.5,0.2-0.3,0.6c0.4,1.2,1,1.5,2.1,1.8c0.2,0.1,0.7,0.2,0.8,0.5c0.1,0.2-0.1,0.4-0.3,0.4c-0.1,0-0.3,0-0.4,0l-2.2,0.1    c-0.3,0-0.6,0-0.7-0.3c-0.1-0.2,0-0.3,0.1-0.4c0.4-0.3,0.3-0.4,0.2-0.9l-1.9-6.2c-0.2-0.5-0.2-1-0.8-1.1c-0.2,0-0.4-0.1-0.5-0.3    c-0.1-0.4,0.2-0.4,0.5-0.5l2.3-0.5c0.3-0.1,0.7-0.2,0.8,0.2c0.1,0.3-0.1,0.5-0.3,0.7c-1.1,0.9-1.3,1.2-0.9,2.6    c0.1,0.4,0.2,0.4,0.6,0.3L18.9,117z"></path>
		<path class="st0" d="M12.4,105.1c-0.1-0.6-0.1-0.6-0.7-0.5l-1.7,0.2c-1.1,0.2-1.6,0.1-1.6,1.3c0,0.2,0,0.6-0.3,0.6    c-0.3,0-0.4-0.1-0.4-0.4c-0.1-0.9-0.2-1.8-0.3-2.8c-0.1-0.9-0.3-1.7-0.4-2.5c0-0.3,0-0.5,0.3-0.5c0.3,0,0.4,0.2,0.4,0.4    c0.4,1.2,0.7,1,1.9,0.9l6.3-0.9c1.1-0.1,1.5-0.1,1.5-1.3c0-0.2,0-0.6,0.3-0.6c0.3,0,0.4,0.1,0.4,0.4c0.1,0.9,0.2,1.8,0.3,2.8    c0.1,0.9,0.3,1.7,0.4,2.6c0,0.2,0,0.4-0.3,0.5c-0.3,0-0.4-0.2-0.5-0.4c-0.4-1.1-0.7-1.1-1.8-0.9l-2.7,0.4    c-0.5,0.1-0.4,0.1-0.4,0.6l0.5,3.2c0.1,0.7,0,0.7,0.8,0.6l2.5-0.4c1.1-0.1,1.5-0.1,1.5-1.3c0-0.2,0-0.6,0.3-0.6    c0.3,0,0.4,0.1,0.4,0.4c0.1,0.9,0.2,1.8,0.3,2.8c0.1,0.9,0.3,1.7,0.4,2.6c0,0.3,0,0.4-0.3,0.5c-0.3,0-0.4-0.2-0.5-0.4    c-0.4-1.1-0.7-1.1-1.8-0.9l-6.3,0.9c-1.1,0.2-1.6,0.1-1.6,1.3c0,0.2,0,0.6-0.3,0.6c-0.3,0-0.4-0.1-0.4-0.4    c-0.1-0.9-0.2-1.8-0.3-2.8c-0.1-0.9-0.3-1.7-0.4-2.5c0-0.2,0-0.5,0.3-0.5c0.3,0,0.4,0.2,0.4,0.4c0.4,1.2,0.7,1,1.9,0.9l1.7-0.2    c0.6-0.1,0.6-0.1,0.6-0.7L12.4,105.1z"></path>
		<path class="st0" d="M10.9,94.1c0.5,0,0.8,0,0.9-0.6c0-0.4,0-1.2-0.1-1.5c-0.1-0.5-0.5-0.7-0.9-0.9c-0.2-0.1-0.6-0.2-0.6-0.5    c0-0.3,0.2-0.4,0.5-0.4c0.5,0,1,0,1.5,0.1c0.5,0,1,0,1.5-0.1c0.2,0,0.5,0.1,0.5,0.4c0,0.9-1.7,0.2-1.8,2.1l0,0.8    c0,0.6,0.3,0.6,0.8,0.6l2.1,0c0.5,0,1.1,0,1.5-0.3c0.4-0.3,0.5-0.9,0.5-1.4c0-1.3-0.5-2.3-1.6-2.9c-0.3-0.1-0.6-0.3-0.6-0.6    c0-0.3,0.1-0.4,0.4-0.4c0.2,0,0.6,0.1,0.8,0.2l1.4,0.2c0.2,0,0.3,0.1,0.3,0.3c0,1.3-0.1,2.7-0.1,4c0,1.7,0,3.5,0,5.2    c0,0.3-0.1,0.4-0.3,0.4c-0.3,0-0.4-0.3-0.4-0.5c-0.2-1.2-0.5-1.2-1.6-1.2l-6.4-0.1c-1.1,0-1.6-0.1-1.8,1.1c0,0.2-0.1,0.6-0.3,0.6    c-0.3,0-0.4-0.2-0.4-0.4c0-1.1,0.1-2.1,0.1-3.2c0-1.9,0-3.7,0-5.6c0-0.4,0.3-0.3,0.6-0.3l1.5,0c0.3,0,0.6,0,0.6,0.4    c0,0.3-0.3,0.4-0.5,0.6c-0.3,0.2-0.7,0.5-0.9,0.8c-0.3,0.4-0.4,0.9-0.4,1.4c0,0.3,0,1.3,0.1,1.6c0.1,0.2,0.6,0.2,0.8,0.2    L10.9,94.1z"></path>
		<path class="st0" d="M19.3,71.9c0.6,0.2,0.8,0.2,1,0.8c0.4,1.1,0.3,2.4,0.1,3.6c-0.3,1.5-1.1,3.3-2.3,4.4    c-1.3,1.1-3.2,1.7-4.8,1.3c-1.7-0.4-3.1-1.6-3.9-3.2c-0.7-1.6-0.8-3.6-0.4-5.3c0.2-0.8,0.5-1.8,0.9-2.6c0.2-0.4,0.3-0.4,0.8-0.4    l0.9,0c0.2,0,0.3,0,0.5,0c0.2,0,0.3,0.2,0.2,0.4c-0.2,0.8-2.3,0.4-2.8,2.8c-0.2,1.2,0.2,2.4,1,3.2c0.8,0.9,2,1.4,3.2,1.7    c1.1,0.2,2.5,0.2,3.6-0.2c1.2-0.4,2.1-1.4,2.4-2.6c0.1-0.7,0-1.4-0.3-2c-0.3-0.6-0.8-1.1-1.4-1.5c-0.2-0.1-0.3-0.3-0.3-0.5    c0.1-0.4,0.5-0.3,0.7-0.2L19.3,71.9z"></path>
		<path class="st0" d="M20.5,66.6c1,0.3,1.4,0.5,1.9-0.5c0.1-0.2,0.3-0.5,0.6-0.4c0.3,0.1,0.3,0.3,0.2,0.5c-0.3,0.9-0.7,1.7-1,2.6    c-0.3,0.8-0.5,1.7-0.8,2.5c-0.1,0.2-0.2,0.4-0.5,0.3c-0.3-0.1-0.3-0.4-0.2-0.6c0.2-1.2-0.1-1.2-1.2-1.6l-6.1-2    c-1-0.4-1.4-0.6-2,0.4c-0.1,0.2-0.2,0.5-0.5,0.4c-0.3-0.1-0.3-0.3-0.2-0.5c0.3-0.9,0.7-1.7,1-2.6c0.3-0.8,0.5-1.7,0.8-2.5    c0.1-0.2,0.2-0.4,0.5-0.3c0.3,0.1,0.2,0.4,0.2,0.6c-0.2,1.2,0.2,1.3,1.3,1.6L20.5,66.6z"></path>
		<path class="st0" d="M23.9,58.6c1,0.5,1.3,0.7,2-0.2c0.1-0.2,0.3-0.5,0.6-0.3c0.2,0.1,0.2,0.3,0.1,0.5c-0.4,0.8-0.9,1.6-1.3,2.5    c-0.4,0.8-0.7,1.6-1,2.4c-0.1,0.2-0.3,0.4-0.5,0.2c-0.3-0.1-0.2-0.4-0.2-0.6c0.3-1.2,0-1.2-1-1.7L15.8,58    c-0.5-0.2-0.5-0.2-0.7,0.2c-0.5,1.1-0.3,1.8,0.3,2.8c0.1,0.2,0.4,0.7,0.3,0.9c-0.1,0.2-0.3,0.2-0.5,0.1c-0.1-0.1-0.2-0.2-0.3-0.3    l-1.7-1.4c-0.2-0.2-0.5-0.4-0.3-0.7c0.1-0.2,0.2-0.2,0.4-0.2c0.5,0.1,0.5-0.1,0.7-0.5l2.8-5.8c0.2-0.5,0.5-0.9,0.1-1.4    c-0.1-0.2-0.2-0.3-0.1-0.5c0.2-0.4,0.5-0.2,0.7,0l2,1.2c0.2,0.2,0.7,0.3,0.5,0.7c-0.1,0.3-0.5,0.3-0.7,0.3c-1.4-0.1-1.8,0-2.4,1.3    c-0.2,0.4-0.2,0.5,0.3,0.7L23.9,58.6z"></path>
		<path class="st0" d="M25.4,43.5c-0.1-0.2-0.2-0.6-0.4-0.7c-0.3-0.2-0.7,0-1,0.3c-0.3,0.3-0.5,0.7-0.7,0.5c-0.3-0.2-0.1-0.5,0-0.7    c0.3-0.4,0.7-0.8,1-1.3c0.4-0.5,0.7-1.1,1.1-1.7c0.1-0.2,0.4-0.4,0.7-0.2c0.2,0.2,0.1,0.3,0,0.5c-0.2,0.3-0.3,0.7-0.3,1    c0,0.6,0.4,1.5,0.6,2l1.3,3.7l2.4,1.7c0.9,0.6,1.2,0.9,2,0.1c0.2-0.2,0.4-0.4,0.7-0.2c0.2,0.2,0.2,0.4,0,0.6    c-0.5,0.8-1.1,1.5-1.7,2.2c-0.5,0.7-0.9,1.5-1.4,2.2c-0.1,0.2-0.3,0.3-0.5,0.2c-0.2-0.2-0.2-0.4-0.1-0.6c0.5-1.1,0.2-1.2-0.7-1.9    l-2-1.4l-5.5,0c-0.3,0-0.8,0-1.1,0.1c-0.3,0.1-0.4,0.1-0.6,0.3c-0.2,0.2-0.3,0.5-0.7,0.3c-0.3-0.2-0.1-0.5,0.1-0.7    c0.5-0.6,0.9-1.2,1.4-1.9c0.6-0.8,1-1.6,1.6-2.4c0.2-0.2,0.4-0.6,0.7-0.3c0.3,0.2,0,0.6-0.2,0.8c-0.1,0.2-0.2,0.6,0,0.7    c0.2,0.2,0.8,0.1,1.1,0.2l3.7,0L25.4,43.5z"></path>
		<path class="st0" d="M34.2,31.4c-0.2-0.6-0.4-0.9,0.1-1.3c0.4-0.4,0.6-0.2,1.1,0L44,34c0.3,0.1,0.7,0.3,1,0.4    c0.4,0.1,0.6,0,0.8-0.2c0.2-0.2,0.4-0.5,0.7-0.2c0.2,0.3,0,0.5-0.2,0.7c-0.6,0.5-1.1,1-1.7,1.4c-0.7,0.6-1.2,1.3-1.9,1.8    c-0.2,0.2-0.4,0.4-0.7,0.1c-0.4-0.4,0.8-0.9,0.4-1.4c-0.2-0.2-0.4-0.3-0.6-0.4l-1.4-0.7c-0.6-0.3-0.5-0.3-1,0.1l-1.7,1.6    c-0.5,0.4-0.4,0.4-0.2,0.9c0.2,0.5,0.5,1.1,0.8,1.5c0.9,0.9,1.6-0.8,2.2-0.3c0.2,0.2,0,0.5-0.2,0.7c-0.4,0.4-0.9,0.7-1.3,1.1    c-0.4,0.4-0.8,0.8-1.2,1.2c-0.2,0.2-0.4,0.3-0.7,0.1c-0.2-0.2,0-0.4,0.1-0.6c0.3-0.4,0.4-0.6,0.3-1.1c-0.1-0.5-0.5-1.4-0.7-1.9    l-1-2.5L34.2,31.4z M36.8,36.2c0,0.1,0.2,0.4,0.2,0.5c0.2,0.2,0.4-0.1,0.5-0.2l1.1-1.1c0.1-0.1,0.5-0.4,0.3-0.5    c-0.1-0.1-0.4-0.2-0.4-0.2l-3-1.4L36.8,36.2z"></path>
		<path class="st0" d="M50.1,21.6c-0.2-0.3-0.5-0.8-0.8-1c-0.4-0.2-0.8-0.1-1.1,0c-0.3,0.1-0.5,0.4-0.7,0.1    c-0.2-0.3,0.1-0.5,0.3-0.7c0.4-0.3,0.9-0.6,1.3-0.9c0.4-0.3,0.9-0.6,1.3-0.9c0.2-0.2,0.4-0.2,0.6,0c0.2,0.4-0.3,0.6-0.6,0.8    c-0.6,0.6-0.1,1.2,0.3,1.8l4.8,7.1c0.3,0.4,0.5,0.6,0,1c-0.4,0.3-0.8,0.1-1.2-0.1l-10.9-3.4l3.3,4.9c0.2,0.4,0.8,1.1,1.1,1.4    c0.5,0.3,0.8,0.2,1.2,0c0.2-0.1,0.6-0.4,0.8-0.1c0.2,0.3,0,0.5-0.2,0.6c-0.5,0.3-1,0.6-1.4,0.9c-0.5,0.3-0.9,0.7-1.4,1    c-0.2,0.1-0.5,0.2-0.6,0c-0.2-0.3,0.2-0.6,0.4-0.7c0.3-0.2,0.4-0.5,0.3-0.9c-0.1-0.6-0.7-1.3-1.1-1.8l-3.1-4.6    c-0.4-0.6-0.8-1.3-1.6-0.8c-0.2,0.1-0.6,0.4-0.8,0.1c-0.2-0.3,0.1-0.5,0.3-0.6l2.6-1.8c0.6-0.4,0.6-0.3,1.3-0.1l7.8,2.4L50.1,21.6    z"></path>
		<path class="st0" d="M54.9,18.6c-0.4-0.8-0.6-1.4-1.5-0.9c-0.2,0.1-0.6,0.4-0.7,0c-0.3-0.8,4-2.9,4.7-3.3c1.6-0.7,3.1-1.1,4.9-0.9    c1.8,0.3,3.4,1.3,4.1,3c1.5,3.4-0.8,6.9-3.9,8.3c-1.4,0.6-2.8,1.2-4.2,1.8c-0.3,0.1-0.6,0.3-0.9,0.5c-0.2,0.1-0.4,0.1-0.6-0.2    c-0.1-0.3,0.1-0.4,0.3-0.5c0.9-0.7,0.8-1,0.3-2.1L54.9,18.6z M60,22.7c0.5,1.1,0.9,2.1,2.2,1.5c1.1-0.5,1.8-1.6,2-2.8    c0.2-1.1-0.1-2.5-0.6-3.5c-1-2.2-3.2-4-5.7-2.9c-1.2,0.5-1.1,0.8-0.6,1.9L60,22.7z"></path>
		<path class="st0" d="M84.9,16.3c0.1,0.6,0.1,0.8-0.3,1.2c-0.9,0.8-2.1,1.3-3.2,1.5c-1.6,0.3-3.4,0.3-4.9-0.4    c-1.5-0.7-2.8-2.2-3.1-3.9c-0.3-1.7,0.2-3.5,1.4-4.8c1.2-1.3,3-2.1,4.7-2.5c0.8-0.2,1.9-0.2,2.7-0.2c0.5,0,0.5,0.1,0.7,0.6    l0.3,0.9c0.1,0.2,0.1,0.3,0.2,0.5c0,0.2-0.1,0.3-0.3,0.4c-0.8,0.2-1.3-1.9-3.7-1.5c-1.2,0.2-2.1,1.1-2.6,2.2    c-0.5,1.1-0.5,2.5-0.3,3.6c0.2,1.1,0.7,2.4,1.6,3.2c0.9,0.9,2.1,1.4,3.4,1.2c0.7-0.1,1.3-0.5,1.7-1c0.4-0.5,0.6-1.2,0.8-1.9    c0-0.2,0.1-0.4,0.4-0.5c0.4-0.1,0.5,0.3,0.5,0.6L84.9,16.3z"></path>
		<path class="st0" d="M87.9,16.6c-1.3-1-2.1-2.7-2.2-4.3c0-1.6,0.6-3.1,1.7-4.2c1.2-1.2,2.7-1.8,4.4-1.9c3.4-0.1,6.7,2,6.8,5.7    c0.1,3.5-2.8,6-6.2,6.1C91,18,89.1,17.5,87.9,16.6z M95.6,12.4c-0.1-2.1-1.2-5.7-3.8-5.6c-2.3,0.1-2.9,3-2.9,4.9    c0,1.2,0.3,2.5,0.9,3.6c0.6,1.1,1.6,2.1,2.9,2.1C95,17.2,95.6,14.3,95.6,12.4z"></path>
		<path class="st0" d="M110.6,15.1c-0.2,1.2-0.3,2.3-1.5,3c-1.1,0.7-2.4,0.7-3.7,0.5c-1.2-0.2-2.5-0.6-3.5-1.3c-1.2-1-1.2-2.1-1-3.5    l0.7-4.9c0.2-1.1,0.3-1.5-0.8-1.9c-0.2-0.1-0.6-0.1-0.5-0.4c0-0.3,0.2-0.3,0.5-0.3c0.9,0.1,1.8,0.3,2.7,0.5    c0.9,0.1,1.7,0.2,2.6,0.3c0.3,0,0.4,0.1,0.4,0.4c0,0.3-0.3,0.3-0.5,0.3c-1.2,0-1.2,0.4-1.4,1.6l-0.5,3.9c-0.1,0.7-0.3,2.2-0.1,2.8    c0.3,1.1,1.3,1.6,2.3,1.8c0.9,0.1,2,0,2.7-0.6c0.7-0.6,0.8-1.5,0.9-2.4l0.6-4.5c0.1-0.4,0.2-1,0-1.4c-0.1-0.4-0.5-0.5-0.9-0.6    c-0.3-0.1-0.7,0-0.6-0.4c0-0.4,0.4-0.3,0.7-0.3c0.5,0.1,1.1,0.2,1.6,0.3c0.5,0.1,1.1,0.1,1.6,0.2c0.2,0,0.4,0.2,0.4,0.4    c0,0.4-0.4,0.3-0.7,0.2c-0.4,0-0.7,0-0.9,0.5c-0.1,0.3-0.2,0.9-0.3,1.3L110.6,15.1z"></path>
		<path class="st0" d="M123.7,14c0.1-0.3,0.3-0.9,0.2-1.3c-0.1-0.5-0.4-0.7-0.7-0.9c-0.3-0.1-0.7-0.1-0.6-0.5    c0.1-0.4,0.5-0.2,0.7-0.2c0.5,0.2,1,0.3,1.5,0.5c0.5,0.2,1,0.3,1.5,0.4c0.3,0.1,0.5,0.2,0.4,0.5c-0.1,0.4-0.7,0.1-1,0.1    c-0.8-0.1-1,0.7-1.2,1.4l-2.5,8.2c-0.1,0.5-0.2,0.8-0.7,0.6c-0.4-0.1-0.5-0.6-0.7-0.9l-4.2-10.6l-1.7,5.7    c-0.1,0.4-0.4,1.3-0.4,1.7c0,0.6,0.3,0.8,0.8,1c0.2,0.1,0.7,0.2,0.6,0.6c-0.1,0.3-0.4,0.3-0.6,0.2c-0.6-0.2-1-0.4-1.6-0.6    c-0.6-0.2-1.1-0.3-1.7-0.4c-0.2-0.1-0.4-0.2-0.4-0.5c0.1-0.4,0.5-0.2,0.8-0.1c0.4,0.1,0.6,0,0.9-0.3c0.4-0.5,0.6-1.4,0.8-2    l1.6-5.4c0.2-0.7,0.5-1.4-0.3-1.7c-0.3-0.1-0.7-0.2-0.6-0.6c0.1-0.3,0.4-0.2,0.7-0.1l3,0.9c0.7,0.2,0.6,0.2,0.9,0.9l3,7.6    L123.7,14z"></path>
		<path class="st0" d="M130.7,23.8c-0.5,1-0.7,1.3,0.2,2c0.2,0.1,0.5,0.3,0.3,0.6c-0.1,0.2-0.3,0.2-0.5,0.1    c-0.8-0.4-1.6-0.9-2.5-1.3c-0.8-0.4-1.6-0.7-2.4-1c-0.2-0.1-0.4-0.3-0.2-0.5c0.1-0.3,0.4-0.2,0.6-0.2c1.2,0.3,1.2,0,1.7-1l3.3-6.9    c0.2-0.5,0.2-0.5-0.2-0.7c-1.1-0.5-1.8-0.3-2.8,0.3c-0.2,0.1-0.7,0.4-0.9,0.3c-0.2-0.1-0.2-0.3-0.1-0.5c0.1-0.1,0.2-0.2,0.3-0.3    l1.4-1.7c0.2-0.2,0.4-0.5,0.7-0.3c0.2,0.1,0.2,0.2,0.2,0.4c-0.1,0.5,0.1,0.5,0.5,0.7l5.8,2.8c0.5,0.2,0.9,0.5,1.4,0.2    c0.2-0.1,0.3-0.2,0.5-0.1c0.4,0.2,0.2,0.5,0,0.7l-1.2,2c-0.2,0.2-0.3,0.7-0.7,0.5c-0.3-0.1-0.3-0.5-0.3-0.7c0.1-1.4,0-1.8-1.3-2.4    c-0.4-0.2-0.5-0.2-0.7,0.3L130.7,23.8z"></path>
		<path class="st0" d="M145.8,25.1c0.2-0.1,0.6-0.3,0.7-0.5c0.2-0.3,0-0.7-0.3-1c-0.3-0.3-0.7-0.4-0.5-0.7c0.2-0.3,0.5-0.1,0.7,0    c0.4,0.3,0.9,0.7,1.3,1c0.5,0.4,1.1,0.7,1.7,1.1c0.2,0.1,0.4,0.4,0.2,0.7c-0.2,0.2-0.3,0.1-0.5,0c-0.3-0.2-0.7-0.2-1-0.2    c-0.6,0-1.5,0.4-2,0.6l-3.7,1.4l-1.6,2.4c-0.6,0.9-0.9,1.2-0.1,2c0.2,0.2,0.4,0.4,0.2,0.7c-0.2,0.2-0.4,0.2-0.5,0    c-0.8-0.5-1.5-1.1-2.3-1.6c-0.7-0.5-1.5-0.9-2.2-1.4c-0.2-0.1-0.3-0.3-0.2-0.5c0.2-0.2,0.4-0.2,0.6-0.1c1.1,0.5,1.2,0.2,1.9-0.8    l1.3-2l-0.1-5.5c0-0.3,0-0.8-0.1-1.1c-0.1-0.3-0.1-0.4-0.3-0.6c-0.2-0.2-0.5-0.3-0.3-0.7c0.2-0.3,0.5-0.1,0.7,0.1    c0.7,0.4,1.2,0.9,1.9,1.4c0.8,0.5,1.6,1,2.4,1.5c0.2,0.2,0.6,0.4,0.4,0.7c-0.2,0.3-0.6,0-0.8-0.2c-0.2-0.1-0.6-0.2-0.7,0    c-0.2,0.2-0.1,0.8-0.1,1.1l0,3.7L145.8,25.1z"></path>
		<path class="st0" d="M149.6,38.5c-0.1-1.7,0.6-3.4,1.8-4.5c1.2-1.1,2.7-1.6,4.3-1.5c1.7,0.1,3.2,0.8,4.3,2    c2.3,2.5,2.9,6.4,0.2,8.9c-2.6,2.4-6.3,1.9-8.6-0.6C150.6,41.7,149.7,40,149.6,38.5z M157.8,41.5c1.6-1.5,3.5-4.6,1.7-6.6    c-1.6-1.7-4.2-0.2-5.6,1c-0.9,0.8-1.6,1.9-2.1,3c-0.4,1.2-0.5,2.6,0.4,3.6C153.8,44.2,156.5,42.7,157.8,41.5z"></path>
		<path class="st0" d="M164.7,47.5c-0.4,0.3-0.7,0.4-0.4,1c0.2,0.3,0.7,1,0.9,1.2c0.4,0.4,0.8,0.3,1.3,0.2c0.2-0.1,0.6-0.2,0.8,0.1    c0.2,0.2,0,0.4-0.2,0.6c-0.4,0.3-0.9,0.6-1.3,0.8c-0.4,0.3-0.8,0.6-1.2,0.9c-0.2,0.1-0.5,0.2-0.6,0c-0.5-0.7,1.3-1.2,0.2-2.7    l-0.5-0.6c-0.4-0.5-0.6-0.3-1,0l-1.9,1.3c-0.9,0.6-1.3,0.8-0.8,1.8c0.1,0.2,0.2,0.5,0,0.7c-0.2,0.2-0.4,0-0.5-0.2    c-0.5-0.8-1-1.6-1.5-2.3c-0.5-0.7-1-1.4-1.5-2.1c-0.1-0.2-0.2-0.4,0-0.5c0.2-0.2,0.5,0,0.6,0.2c0.8,0.9,1.1,0.7,2,0l5.3-3.6    c0.9-0.6,1.3-0.8,0.8-1.9c-0.1-0.2-0.3-0.5,0-0.7c0.2-0.2,0.4-0.1,0.5,0.2c0.9,1.4,1.8,2.8,2.7,4.2c0.6,1,1.4,1.9,2,2.9    c0.3,0.4,0.3,0.5-0.1,0.8l-1.4,1c-0.2,0.1-0.5,0.2-0.6,0c-0.2-0.3,0.1-0.7,0.2-1c0.2-0.5,0.4-0.7,0.3-1.3    c-0.1-0.6-0.5-1.1-0.8-1.6c-0.1-0.2-0.4-0.7-0.7-0.8c-0.2-0.1-0.5,0.1-0.6,0.2L164.7,47.5z"></path>
		<path class="st0" d="M175.6,64.1c-0.3,0.1-0.6,0.3-0.8-0.1c-0.1-0.3,0.1-0.5,0.3-0.6c0.8-0.7,1.5-1.6,1-2.7    c-0.4-0.9-1.3-1.7-2.3-1.3c-0.9,0.4-0.9,1.3-0.8,2.1l0.1,1c0.2,1.9-0.2,3.5-2.1,4.3c-1,0.4-2.2,0.3-3.2-0.2    c-1.1-0.6-1.8-1.5-2.3-2.6c-0.3-0.8-0.7-2.2-0.6-3c0-0.6,0.3-0.7,0.8-0.9l0.9-0.4c0.3-0.1,0.9-0.4,1,0c0.2,0.4-0.3,0.7-0.5,0.9    c-0.5,0.4-0.9,0.7-1.1,1.2c-0.3,0.7-0.1,1.4,0.1,2c0.4,1,1.5,2,2.7,1.5c1.3-0.6,1.1-2.2,1.1-3.4c0-1.5,0.1-3.5,1.8-4.2    c2.2-0.9,4.4,1,5.1,2.9c0.2,0.6,0.5,1.7,0.5,2.3c0,0.4-0.3,0.4-0.6,0.6L175.6,64.1z"></path>
		<path class="st0" d="M179.3,70.8c0.6,0.1,1,0,1.1,0.7c0.1,0.6-0.1,0.6-0.5,0.9l-7.6,5.8c-0.2,0.2-0.6,0.4-0.8,0.7    c-0.2,0.3-0.3,0.5-0.2,0.8c0.1,0.3,0.2,0.6-0.2,0.7c-0.3,0.1-0.5-0.3-0.5-0.5c-0.2-0.7-0.3-1.4-0.5-2.1c-0.2-0.9-0.5-1.7-0.7-2.5    c-0.1-0.2-0.1-0.6,0.2-0.7c0.6-0.2,0.4,1.2,1,1c0.2-0.1,0.5-0.2,0.6-0.3l1.3-0.9c0.6-0.4,0.5-0.3,0.4-0.9l-0.6-2.3    c-0.2-0.6-0.1-0.6-0.7-0.6c-0.5,0-1.2-0.1-1.7,0c-1.2,0.3,0,1.9-0.8,2.1c-0.3,0.1-0.5-0.2-0.5-0.5c-0.1-0.5-0.2-1.1-0.4-1.6    c-0.1-0.5-0.3-1.1-0.5-1.6c-0.1-0.3-0.1-0.6,0.2-0.6c0.3-0.1,0.4,0.2,0.5,0.4c0.2,0.5,0.3,0.6,0.8,0.8c0.5,0.1,1.5,0.2,2,0.3    L174,70L179.3,70.8z M173.9,70.8c-0.1,0-0.4-0.1-0.5,0c-0.2,0.1-0.1,0.4,0,0.6l0.4,1.5c0,0.1,0.1,0.6,0.3,0.5    c0.1,0,0.3-0.2,0.4-0.3l2.7-1.9L173.9,70.8z"></path>
		<path class="st0" d="M180.4,89.4c0.4,0,0.9-0.1,1.3-0.3c0.4-0.2,0.5-0.6,0.5-1c0-0.3-0.1-0.7,0.3-0.7c0.4,0,0.4,0.4,0.4,0.6    c0.1,0.5,0.1,1.1,0.1,1.6c0.1,0.5,0.1,1.1,0.2,1.6c0,0.3,0,0.5-0.3,0.5c-0.4,0-0.4-0.6-0.4-0.9c-0.2-0.8-1-0.6-1.7-0.6l-8.5,0.9    c-0.5,0.1-0.8,0.2-0.9-0.4c0-0.4,0.3-0.7,0.6-1l8.1-8l-5.9,0.6c-0.4,0-1.4,0.1-1.7,0.3c-0.5,0.2-0.6,0.6-0.6,1.1    c0,0.3,0.1,0.8-0.3,0.8c-0.3,0-0.4-0.2-0.4-0.5c-0.1-0.6,0-1.1-0.1-1.7c-0.1-0.6-0.2-1.1-0.2-1.7c0-0.3,0-0.5,0.3-0.5    c0.4,0,0.4,0.4,0.5,0.7c0.1,0.4,0.2,0.6,0.6,0.7c0.6,0.1,1.5,0,2.1-0.1l5.6-0.6c0.7-0.1,1.5-0.1,1.5-1c0-0.3-0.1-0.7,0.3-0.7    c0.3,0,0.4,0.3,0.4,0.6l0.3,3.2c0.1,0.7,0,0.7-0.5,1.2l-5.8,5.8L180.4,89.4z"></path>
		<path class="st0" d="M178.6,103.3c-0.5-0.1-0.8-0.1-0.9,0.5c0,0.4-0.1,1.2-0.1,1.5c0,0.5,0.4,0.8,0.9,1c0.2,0.1,0.6,0.3,0.5,0.6    c0,0.3-0.3,0.3-0.5,0.3c-0.5-0.1-1-0.1-1.5-0.2c-0.5,0-1-0.1-1.5-0.1c-0.2,0-0.5-0.1-0.5-0.4c0.1-0.9,1.7-0.1,1.9-2l0-0.8    c0-0.6-0.2-0.6-0.7-0.6l-2.3-0.2c-1.1-0.1-1.5-0.2-1.8,0.9c-0.1,0.2-0.1,0.6-0.5,0.5c-0.3,0-0.3-0.2-0.3-0.5    c0.1-0.9,0.2-1.8,0.3-2.8c0.1-0.9,0.1-1.7,0.2-2.6c0-0.3,0.1-0.4,0.4-0.4c0.3,0,0.4,0.3,0.4,0.5c0.1,1.2,0.4,1.2,1.6,1.3l6.4,0.6    c1.1,0.1,1.6,0.2,1.8-0.9c0.1-0.2,0.1-0.6,0.4-0.5c0.3,0,0.3,0.2,0.3,0.5c-0.2,1.6-0.4,3.3-0.6,5c-0.1,1.1-0.2,2.3-0.3,3.5    c0,0.5-0.1,0.6-0.6,0.5l-1.7-0.2c-0.2,0-0.5-0.1-0.4-0.4c0-0.3,0.5-0.5,0.7-0.6c0.5-0.2,0.8-0.3,1-0.8c0.3-0.5,0.3-1.1,0.4-1.7    c0-0.2,0.1-0.8,0-1c-0.1-0.2-0.4-0.2-0.6-0.2L178.6,103.3z"></path>
		<path class="st0" d="M170.4,118.7c-0.7,0.2-1.1,0.2-1.5,0.9c-0.1,0.2-0.2,0.3-0.5,0.3c-0.3-0.1-0.3-0.4-0.2-0.6    c0.1-0.5,0.3-1,0.4-1.4c0.1-0.5,0.2-1,0.3-1.5c0.1-0.4,0.3-0.4,0.7-0.5l3.6-0.8c0.4-0.1,1.2-0.3,1.5-0.5c0.2-0.1,0.3-0.3,0.3-0.6    c0.1-0.3-0.2-0.3-0.5-0.4l-2.3-0.6c-1-0.3-1.4-0.4-1.9,0.6c-0.1,0.2-0.2,0.5-0.5,0.5c-0.3-0.1-0.3-0.3-0.2-0.5    c0.2-0.9,0.5-1.8,0.7-2.7c0.2-0.8,0.3-1.7,0.6-2.5c0.1-0.2,0.2-0.4,0.4-0.3c0.3,0.1,0.3,0.4,0.3,0.6c-0.1,1.2,0.2,1.2,1.4,1.5    l6.2,1.5c1,0.3,1.5,0.5,1.9-0.5c0.1-0.2,0.2-0.6,0.5-0.5c0.3,0.1,0.3,0.3,0.3,0.5c-0.2,0.8-0.5,1.6-0.7,2.4    c-0.3,1.4-0.6,2.7-0.9,4.1c-0.2,0.8-0.5,1.5-1.1,2c-0.7,0.5-1.5,0.7-2.4,0.5c-1.7-0.4-2.1-2.1-1.8-3.6c-0.3,1-1.1,1.2-2,1.4    L170.4,118.7z M176.6,114.1c-0.4-0.1-0.8-0.3-0.9,0.2c-0.1,0.5-0.2,1.1,0,1.6c0.3,0.6,0.9,1.1,1.5,1.2c1.1,0.3,2.4-0.2,2.7-1.4    c0.1-0.3,0.1-0.8-0.2-0.9c-0.2-0.1-0.6-0.2-0.8-0.2L176.6,114.1z"></path>
		<path class="st0" d="M175.3,129.6c0.4,0.5,0.7,0.6,0.4,1.3c-0.3,0.5-0.4,0.4-1,0.4l-9.5-0.5c-0.3,0-0.7,0-1,0    c-0.4,0.1-0.5,0.2-0.7,0.5c-0.1,0.3-0.2,0.6-0.6,0.4c-0.3-0.2-0.2-0.5-0.1-0.7c0.3-0.7,0.7-1.3,1-1.9c0.4-0.8,0.7-1.6,1.1-2.4    c0.1-0.2,0.3-0.5,0.6-0.4c0.6,0.3-0.5,1.2,0.1,1.5c0.2,0.1,0.5,0.1,0.7,0.1l1.6,0.1c0.7,0.1,0.6,0.1,0.9-0.5l1-2.1    c0.3-0.6,0.3-0.5-0.1-0.9c-0.4-0.4-0.8-0.8-1.3-1.1c-1.2-0.6-1.2,1.4-2,1c-0.3-0.1-0.2-0.5-0.1-0.7c0.2-0.5,0.5-1,0.8-1.5    c0.2-0.5,0.5-1,0.7-1.5c0.1-0.2,0.3-0.5,0.6-0.3c0.3,0.1,0.2,0.4,0.1,0.6c-0.1,0.5-0.2,0.7,0.1,1.1c0.3,0.4,1,1.1,1.4,1.5l1.8,2    L175.3,129.6z M171.1,126.1c-0.1-0.1-0.3-0.3-0.4-0.4c-0.2-0.1-0.3,0.3-0.4,0.4l-0.7,1.4c-0.1,0.1-0.3,0.5-0.1,0.6    c0.1,0,0.4,0,0.5,0l3.3,0.3L171.1,126.1z"></path>
		<path class="st0" d="M163.1,145.8c0.3,0.2,0.8,0.6,1.1,0.6c0.5,0.1,0.8-0.1,1.1-0.4c0.2-0.2,0.3-0.6,0.7-0.4    c0.3,0.2,0.1,0.5-0.1,0.8c-0.3,0.4-0.6,0.8-1,1.3c-0.3,0.4-0.6,0.9-0.9,1.3c-0.2,0.2-0.3,0.4-0.6,0.2c-0.4-0.3,0.1-0.7,0.3-0.9    c0.4-0.8-0.4-1.2-0.9-1.6l-7-4.9c-0.4-0.3-0.7-0.4-0.4-0.9c0.3-0.4,0.7-0.3,1.1-0.4l11.4-0.7l-4.8-3.4c-0.4-0.2-1.1-0.8-1.5-0.9    c-0.5-0.2-0.9,0.1-1.2,0.5c-0.2,0.2-0.4,0.6-0.7,0.4c-0.2-0.2-0.1-0.5,0-0.7c0.3-0.5,0.7-0.9,1-1.3c0.3-0.5,0.6-1,0.9-1.4    c0.1-0.2,0.4-0.3,0.6-0.2c0.3,0.2,0,0.6-0.1,0.8c-0.2,0.3-0.2,0.6,0,0.9c0.3,0.5,1.1,1,1.6,1.4l4.6,3.2c0.6,0.4,1.2,0.9,1.8,0.2    c0.2-0.2,0.4-0.6,0.7-0.4c0.3,0.2,0.1,0.5-0.1,0.7l-1.8,2.6c-0.4,0.6-0.4,0.5-1.1,0.6l-8.2,0.5L163.1,145.8z"></path>
		<path class="st0" d="M148,152.2c-0.4-0.4-0.6-0.6-0.4-1.2c0.3-1.2,1-2.2,1.8-3.1c1.1-1.1,2.6-2.2,4.2-2.5c1.7-0.3,3.6,0.2,4.8,1.4    c1.3,1.2,1.8,3,1.6,4.8c-0.2,1.7-1.2,3.4-2.4,4.7c-0.6,0.6-1.4,1.3-2.1,1.7c-0.4,0.3-0.5,0.2-0.9-0.1l-0.8-0.5    c-0.2-0.1-0.3-0.2-0.4-0.3c-0.1-0.1-0.1-0.3,0-0.5c0.6-0.6,2.2,0.8,3.8-0.9c0.8-0.9,1.1-2.1,0.9-3.3c-0.2-1.2-1-2.3-1.8-3.1    c-0.8-0.8-2-1.5-3.1-1.7c-1.2-0.2-2.5,0-3.4,1c-0.5,0.5-0.8,1.1-0.8,1.8c0,0.7,0.2,1.3,0.4,2c0.1,0.2,0.1,0.4,0,0.6    c-0.3,0.3-0.6,0-0.7-0.2L148,152.2z"></path>
		<path class="st0" d="M144.1,156.1c-0.7-0.8-0.9-1.2-1.9-0.6c-0.2,0.1-0.5,0.3-0.7,0c-0.2-0.2-0.1-0.4,0.1-0.5    c0.7-0.6,1.5-1.1,2.2-1.7c0.7-0.5,1.3-1.2,2-1.7c0.2-0.2,0.4-0.2,0.6,0c0.2,0.2,0,0.5-0.1,0.6c-0.8,0.9-0.6,1.1,0.2,2l4.1,4.9    c0.7,0.8,0.9,1.3,1.9,0.7c0.2-0.1,0.5-0.3,0.7-0.1c0.2,0.2,0.1,0.4-0.1,0.5c-0.7,0.6-1.5,1.1-2.2,1.7c-0.7,0.5-1.3,1.2-1.9,1.7    c-0.2,0.2-0.4,0.2-0.6,0c-0.2-0.2,0-0.4,0.2-0.6c0.8-0.9,0.5-1.2-0.2-2.1L144.1,156.1z"></path>
		<path class="st0" d="M139.6,167.4c-0.2-0.2-0.4-0.5-0.1-0.8c0.3-0.2,0.5,0,0.7,0.1c0.8,0.7,1.8,1.1,2.8,0.5    c0.8-0.5,1.4-1.6,0.8-2.5c-0.5-0.8-1.5-0.6-2.2-0.4l-0.9,0.3c-1.8,0.5-3.5,0.5-4.7-1.2c-0.6-0.9-0.7-2.1-0.4-3.2    c0.4-1.2,1.2-2.1,2.2-2.7c0.7-0.5,2-1.1,2.9-1.2c0.6-0.1,0.7,0.1,1.1,0.6l0.5,0.8c0.2,0.2,0.6,0.8,0.2,1c-0.4,0.2-0.7-0.2-1-0.4    c-0.5-0.4-0.8-0.7-1.4-0.8c-0.7-0.1-1.4,0.1-1.9,0.5c-0.9,0.6-1.7,1.9-1,2.9c0.8,1.2,2.3,0.7,3.5,0.5c1.5-0.3,3.4-0.6,4.4,0.9    c1.3,2-0.2,4.5-1.9,5.6c-0.5,0.3-1.6,0.8-2.2,0.9c-0.4,0-0.5-0.2-0.7-0.5L139.6,167.4z"></path>
		<path class="st0" d="M124.2,167.2c-0.2-0.6-0.3-0.8,0-1.3c0.6-1,1.7-1.7,2.8-2.3c1.4-0.7,3.3-1.2,4.8-0.9c1.7,0.3,3.3,1.5,4,3    c0.8,1.6,0.7,3.5-0.1,5c-0.8,1.5-2.3,2.8-3.9,3.6c-0.8,0.4-1.7,0.7-2.6,0.8c-0.5,0.1-0.5,0-0.8-0.4l-0.5-0.8    c-0.1-0.1-0.2-0.3-0.3-0.4c-0.1-0.2,0-0.3,0.2-0.4c0.7-0.4,1.7,1.5,3.9,0.5c1.1-0.5,1.8-1.6,2-2.8c0.2-1.2-0.1-2.5-0.6-3.6    c-0.5-1.1-1.3-2.1-2.3-2.7c-1.1-0.7-2.4-0.9-3.5-0.3c-0.6,0.3-1.1,0.8-1.4,1.4c-0.3,0.6-0.3,1.3-0.3,2c0,0.2,0,0.4-0.2,0.5    c-0.4,0.2-0.5-0.2-0.6-0.5L124.2,167.2z"></path>
		<path class="st0" d="M121.3,167.6c1.6,0.6,2.7,2,3.2,3.6c0.4,1.5,0.2,3.1-0.6,4.5c-0.8,1.5-2.1,2.5-3.8,2.9c-3.3,1-7-0.2-8-3.7    c-1-3.3,1.2-6.5,4.4-7.5C118,167.1,119.9,167,121.3,167.6z M115,173.6c0.6,2.1,2.6,5.2,5.1,4.4c2.2-0.7,2.1-3.7,1.6-5.4    c-0.3-1.2-0.9-2.3-1.8-3.2c-0.9-0.9-2.1-1.6-3.4-1.2C114.3,168.8,114.5,171.9,115,173.6z"></path>
	</g>
</g>
</svg>
